<svg width="510" height="852" viewBox="0 0 510 852" fill="none" xmlns="http://www.w3.org/2000/svg">
<rect x="-10.316" y="313.262" width="535.708" height="408.927" fill="#EEB283"/>
<path d="M-8.97 597.414L231.964 313.262H289.842L522.7 602.657L590 920.362H-83L-8.97 597.414Z" fill="#252525" stroke="black"/>
<rect width="103.675" height="31.091" transform="matrix(0.0156821 -0.999877 0.999953 0.00969932 241.386 933.85)" fill="#D9D9D9"/>
<rect width="103.675" height="26.2057" transform="matrix(0.0158314 -0.999875 0.999954 0.00960786 244.028 775.522)" fill="#D9D9D9"/>
<rect x="249.462" y="617.336" width="89.1252" height="22.882" transform="rotate(-90 249.462 617.336)" fill="#D9D9D9"/>
<rect x="250.808" y="475.784" width="68.1546" height="18.844" transform="rotate(-90 250.808 475.784)" fill="#D9D9D9"/>
<rect x="250.808" y="361.494" width="48.2325" height="17.498" transform="rotate(-90 250.808 361.494)" fill="#D9D9D9"/>
<rect width="510" height="341" fill="#003F88"/>
<path d="M424.931 332.831C411.184 345.508 373 364.524 373 364.524L588.36 356.917L557.812 332.831C527.265 308.744 525.738 310.011 508.936 310.011C492.135 310.011 438.677 320.153 424.931 332.831Z" fill="#E2A06C"/>
<path d="M-17.046 386.959C-29.16 401.099 -62.81 422.309 -62.81 422.309L126.976 413.825L100.056 386.959C73.136 360.093 71.79 361.507 56.984 361.507C42.178 361.507 -4.932 372.819 -17.046 386.959Z" fill="#FFC495"/>
</svg>
