<svg width="675" height="935" viewBox="0 0 675 935" fill="none" xmlns="http://www.w3.org/2000/svg">
<rect x="74" width="535" height="341" fill="#003F88"/>
<rect x="73.684" y="313.262" width="535.708" height="408.927" fill="#EEB283"/>
<path d="M75.03 597.414L315.964 313.262H373.842L606.7 602.657L674 920.362H1L75.03 597.414Z" fill="#252525" stroke="black"/>
<rect width="103.675" height="31.091" transform="matrix(0.0156821 -0.999877 0.999953 0.00969932 325.386 933.85)" fill="#D9D9D9"/>
<rect width="103.675" height="26.2057" transform="matrix(0.0158314 -0.999875 0.999954 0.00960786 328.028 775.522)" fill="#D9D9D9"/>
<rect x="333.462" y="617.336" width="89.1252" height="22.882" transform="rotate(-90 333.462 617.336)" fill="#D9D9D9"/>
<rect x="334.808" y="475.784" width="68.1546" height="18.844" transform="rotate(-90 334.808 475.784)" fill="#D9D9D9"/>
<rect x="334.808" y="361.494" width="48.2325" height="17.498" transform="rotate(-90 334.808 361.494)" fill="#D9D9D9"/>
<path d="M508.931 332.831C495.184 345.508 457 364.524 457 364.524L672.36 356.917L641.812 332.831C611.265 308.744 609.738 310.011 592.936 310.011C576.135 310.011 522.677 320.153 508.931 332.831Z" fill="#E2A06C"/>
<path d="M66.9539 386.959C54.8399 401.099 21.1899 422.309 21.1899 422.309L210.976 413.825L184.056 386.959C157.136 360.093 155.79 361.507 140.984 361.507C126.178 361.507 79.0679 372.819 66.9539 386.959Z" fill="#FFC495"/>
</svg>
