<svg width="510" height="566" viewBox="0 0 510 566" fill="none" xmlns="http://www.w3.org/2000/svg">
<rect x="-10.316" y="27.2618" width="535.708" height="408.927" fill="#EEB283"/>
<path d="M-8.97 311.414L231.964 27.2618H289.842L522.7 316.657L590 634.362H-83L-8.97 311.414Z" fill="#252525" stroke="black"/>
<rect width="103.675" height="31.091" transform="matrix(0.0156821 -0.999877 0.999953 0.00969932 241.386 647.85)" fill="#D9D9D9"/>
<rect width="103.675" height="26.2057" transform="matrix(0.0158314 -0.999875 0.999954 0.00960786 244.028 489.522)" fill="#D9D9D9"/>
<rect x="249.462" y="331.336" width="89.1252" height="22.882" transform="rotate(-90 249.462 331.336)" fill="#D9D9D9"/>
<rect x="250.808" y="189.784" width="68.1546" height="18.844" transform="rotate(-90 250.808 189.784)" fill="#D9D9D9"/>
<rect x="250.808" y="75.4943" width="48.2325" height="17.498" transform="rotate(-90 250.808 75.4943)" fill="#D9D9D9"/>
<path d="M425.225 22.8305C411.478 35.5078 373.294 54.5237 373.294 54.5237L588.654 46.9173L558.106 22.8305C527.559 -1.25623 526.032 0.011494 509.23 0.0114903C492.429 0.0114866 438.971 10.1533 425.225 22.8305Z" fill="#E2A06C"/>
<path d="M-17.046 100.959C-29.16 115.099 -62.81 136.309 -62.81 136.309L126.976 127.825L100.056 100.959C73.136 74.0931 71.79 75.5071 56.984 75.5071C42.178 75.5071 -4.932 86.8191 -17.046 100.959Z" fill="#FFC495"/>
</svg>
