<svg width="59" height="50" viewBox="0 0 59 50" fill="none" xmlns="http://www.w3.org/2000/svg">
<g clip-path="url(#clip0_75_216)">
<path d="M41.2596 0.0123469C42.8457 0.188629 43.7712 1.85558 42.9913 3.0826C39.1899 6.67473 35.1789 10.1184 31.2502 13.6116C29.3504 15.3002 27.4534 17.0035 25.5464 18.6913C22.2711 21.5907 19.8146 24.6911 14.7073 24.937C4.05981 25.4496 -1.01133 13.6804 7.22758 7.84686C12.1875 4.33513 18.8927 5.4338 22.8585 9.57643C24.8469 11.6532 21.8544 14.2572 19.52 12.5214C18.7761 11.9678 18.2465 11.2743 17.397 10.7864C13.6228 8.62312 8.50643 10.6403 7.90451 14.5672C7.11822 19.7003 13.9156 22.7968 18.2303 19.357L39.3481 0.533462C39.6906 0.279863 40.166 0.058737 40.6143 0.0123469C40.7679 -0.00388958 41.1078 -0.00466275 41.2596 0.0123469Z" fill="#FFEE97"/>
<path d="M46.4672 5.72298C50.6165 5.45392 53.8304 7.88553 55.3279 11.122C58.8057 18.6388 51.5962 26.3426 42.5936 24.7298C39.387 24.1553 37.7592 22.718 35.526 20.8059C34.7903 20.1766 32.3248 18.1826 31.9642 17.5393C30.8372 15.5298 33.5774 13.6101 35.5549 14.9886C37.2188 16.3208 38.7543 17.9313 40.4227 19.2395C45.2923 23.0582 52.7042 19.3887 51.3477 13.7315C50.8379 11.6045 48.742 9.13497 45.9557 10.0203C44.2285 10.5684 42.7807 13.1918 41.1168 13.3464C39.2704 13.5181 37.9237 12.0421 38.5952 10.5043C38.8492 9.92128 41.0526 8.03244 41.688 7.53606C43.012 6.50079 44.6895 5.83818 46.4672 5.72298Z" fill="#FFEE97"/>
<path d="M55.9488 38.4172V36.4943C55.9488 36.4657 55.8042 36.1765 55.7644 36.1348C55.4942 35.8518 54.7206 35.8518 54.3609 35.9469C54.1295 36.475 53.2619 40.3099 53.0214 40.4614C52.9618 40.4993 52.9266 40.5001 52.8588 40.5078C52.4566 40.5534 50.8768 40.5581 50.4918 40.5024C50.339 40.4807 50.17 40.3601 50.2044 40.2086L51.6215 36.1402L51.6459 35.9005H50.489C50.4294 35.9005 50.3164 35.7064 50.3038 35.6368C50.2523 35.3485 50.2595 34.3743 50.2992 34.072C50.3227 33.8964 50.4104 33.7797 50.6074 33.7271C52.3454 33.7836 54.1973 33.6166 55.9226 33.7171C60.1306 33.9629 58.7117 37.6022 58.9656 40.1514L58.8021 40.4815H54.6049C54.4946 40.4096 54.4576 40.3137 54.4422 40.1978C54.4169 40.0091 54.4187 38.7094 54.4711 38.6074C54.4838 38.5834 54.67 38.4164 54.6853 38.4164H55.9497L55.9488 38.4172Z" fill="#FFEE97"/>
<path d="M23.5201 33.9235C23.9304 33.5756 25.7769 33.6954 26.3146 33.8709C27.457 34.2428 27.6956 35.2943 27.7553 36.2554C27.9532 39.437 26.6761 40.8611 22.9381 40.6006C18.7834 40.3106 19.8706 36.6396 19.7342 34.0727C19.7432 33.8903 19.8833 33.7488 20.0884 33.7202C20.3099 33.69 22.1346 33.6946 22.263 33.7418C22.3452 33.772 22.4934 33.932 22.4826 34.0232C22.5621 35.1753 22.3678 36.451 22.4781 37.5875C22.507 37.8868 22.5748 38.0723 22.873 38.2355C23.4921 38.5749 24.7104 38.5076 24.7963 37.7306C24.8342 37.3888 24.8342 36.3675 24.6625 36.0868C24.3489 35.5742 23.4876 36.3134 23.352 35.7714C23.2969 35.551 23.305 34.5103 23.3394 34.2614C23.3538 34.1531 23.4343 33.9954 23.5201 33.9227V33.9235Z" fill="#FFEE97"/>
<path d="M2.83974 33.7171C4.34455 33.6606 5.88008 33.8137 6.52448 35.19C7.55389 37.3873 5.96232 39.6697 3.56729 40.4119C3.3531 40.4784 2.39418 40.7297 2.25048 40.6733C2.22336 40.6625 2.10045 40.5573 2.08418 40.5326C1.90252 40.248 2.10587 38.9058 2.04441 38.4984C2.38876 38.0522 3.03767 38.1149 3.4019 37.6548C3.72455 37.2474 3.88904 36.1209 3.17686 35.9608C2.33001 35.7698 1.19305 36.0041 0.335356 35.9036C0.126582 35.8796 0.063317 35.7683 0.0407224 35.5936C0.140139 34.5869 -0.0876151 33.3947 0.0407224 32.4104C0.063317 32.2357 0.126582 32.1251 0.335356 32.1004C0.735733 32.054 2.14745 32.0532 2.54692 32.1004C2.63459 32.1104 2.83974 32.2094 2.83974 32.2689V33.7171Z" fill="#FFEE97"/>
<path d="M29.571 18.8243C31.7527 18.5916 33.1273 20.6861 31.7626 22.1822C31.355 22.6291 29.4688 24.3393 28.9871 24.6231C26.7358 25.9467 24.0949 23.4525 25.8962 21.5165C26.3074 21.075 28.3942 19.2202 28.8714 19.0145C29.0784 18.9256 29.3423 18.849 29.571 18.8243Z" fill="#FFEE97"/>
<path d="M42.8466 35.8062C42.7635 35.7853 42.6234 35.5819 42.6071 35.4946C42.5574 35.2162 42.571 34.416 42.6017 34.1183C42.6207 33.9343 42.6632 33.8153 42.8701 33.7387L49.3286 33.7426C49.3611 33.7549 49.503 33.8802 49.5166 33.9088C49.5708 34.0248 49.5717 35.4188 49.5301 35.5812C49.4461 35.9121 48.9671 35.7752 48.6923 35.8147C48.1175 37.2156 48.5712 38.8416 48.3868 40.316C48.2865 40.4343 48.1772 40.4908 48.0127 40.5078C47.5111 40.5604 46.2593 40.5534 45.7478 40.5093C45.596 40.4962 45.5164 40.4869 45.4297 40.3632C45.4468 39.1834 45.3104 37.9076 45.3989 36.7309C45.4152 36.5159 45.4739 36.2469 45.5228 36.0335C45.5327 35.9909 45.6737 35.8069 45.5354 35.8069H42.8448L42.8466 35.8062Z" fill="#FFEE97"/>
<path d="M31.0197 33.7271C31.5023 33.6336 33.2295 33.6892 33.8088 33.7148C38.6422 33.9281 37.1194 37.0633 37.386 40.1498C37.3679 40.33 37.2486 40.4823 37.038 40.507C36.6051 40.5573 35.0985 40.5573 34.6647 40.507C34.4966 40.4877 34.38 40.4027 34.3691 40.2457C34.3122 39.1409 34.455 37.9672 34.3746 36.8708C34.3348 36.3273 34.248 35.892 33.534 35.8085C33.0333 35.7505 31.1634 35.8997 30.8986 35.7598C30.8688 35.7435 30.8091 35.6887 30.7956 35.6608C30.7459 35.5611 30.7368 34.1562 30.7648 33.9745C30.7856 33.8369 30.8625 33.7565 31.0215 33.7264L31.0197 33.7271Z" fill="#FFEE97"/>
<path d="M38.8221 33.7271L41.3925 33.7178L41.6781 33.9405L41.6916 40.1993C41.6889 40.3354 41.5551 40.4289 41.4358 40.4954L38.8112 40.5039L38.5383 40.2704L38.513 34.0719C38.5175 33.9073 38.6422 33.7704 38.8212 33.7271H38.8221Z" fill="#FFEE97"/>
<path d="M15.7385 33.7271C16.5167 33.7774 17.5072 33.6258 18.2592 33.7147C18.4183 33.7333 18.4797 33.8037 18.5782 33.908V37.4662L18.3902 37.6324H15.6481C15.4855 37.5288 15.4475 37.4259 15.4294 37.2559C15.3237 36.2461 15.5144 35.0972 15.4312 34.0719C15.4358 33.9073 15.5605 33.7704 15.7394 33.7271H15.7385Z" fill="#FFEE97"/>
<path d="M38.6224 45.395L38.4344 48.671H36.8202C36.6982 48.6014 36.7136 48.0663 36.7633 48.0037L37.4583 47.9527L37.5469 47.8406C37.5649 47.0233 37.4809 46.2007 37.6544 45.3958C37.63 45.3742 37.2613 45.4198 37.1519 45.3881C36.9504 45.3285 36.9576 44.7417 37.1158 44.6598C37.2188 44.6056 39.236 44.6165 39.5126 44.635C40.1977 44.6799 40.9198 44.9242 41.1945 45.5249C41.4132 46.0035 41.4512 47.9179 41.3699 48.4607C41.3518 48.5805 41.3256 48.6462 41.1774 48.671C41.0291 48.6957 40.3902 48.7088 40.3179 48.5774C40.1778 47.8096 40.42 46.8401 40.2781 46.0963C40.2311 45.8473 40.0503 45.6347 39.8018 45.5203C39.7557 45.4994 39.4755 45.3974 39.4575 45.3974H38.6233L38.6224 45.395Z" fill="#FFEE97"/>
<path d="M8.94658 32.1035H10.7758L10.906 32.3578C10.662 33.2648 10.6538 34.3062 10.4125 35.2008C10.3456 35.4497 10.2191 35.6407 9.91815 35.667C9.42558 35.7103 8.07262 35.7219 7.59813 35.667C7.30079 35.6322 7.33603 35.4621 7.39568 35.2464C7.55475 34.6719 8.32116 32.9941 8.64019 32.4522C8.72515 32.3076 8.80197 32.2086 8.94567 32.105L8.94658 32.1035Z" fill="#FFEE97"/>
<path d="M12.606 32.1035H14.4353L14.5654 32.3578C14.3214 33.2648 14.3133 34.3062 14.0719 35.2008C14.0051 35.4497 13.8785 35.6407 13.5776 35.667C13.085 35.7103 11.732 35.7219 11.2576 35.667C10.9602 35.6322 10.9955 35.4621 11.0551 35.2464C11.2142 34.6719 11.9806 32.9941 12.2996 32.4522C12.3846 32.3076 12.4614 32.2086 12.6051 32.105L12.606 32.1035Z" fill="#FFEE97"/>
<path d="M6.99528 47.9225C7.74814 47.7006 8.94927 48.1969 9.34332 47.3588C9.51594 46.9908 9.52227 46.2354 9.31801 45.8743C8.9086 45.1483 7.6921 45.5937 6.99528 45.3834C6.89858 45.2983 6.89587 44.7935 6.97721 44.7014C7.02692 44.6442 7.0947 44.6411 7.16791 44.6326C7.52129 44.5917 8.35458 44.6102 8.72422 44.6411C9.81509 44.7316 10.398 45.3215 10.4821 46.271C10.5815 47.3944 10.2869 48.5108 8.82454 48.657C8.48382 48.691 7.42548 48.7204 7.1191 48.6686C7.06307 48.6593 7.01517 48.6446 6.97811 48.6036C6.89587 48.5108 6.90039 48.0067 6.99619 47.9217L6.99528 47.9225Z" fill="#FFEE97"/>
<path d="M54.2398 45.3842C54.144 45.2999 54.1394 44.7951 54.2217 44.7023L54.3627 44.6373C55.9985 44.7549 58.2417 44.0721 58.4225 46.1319C58.5364 47.4215 57.8224 48.3315 56.4197 48.6833C56.2245 48.732 55.9506 48.8565 55.8964 48.5983C55.8747 48.4947 55.8774 48.0957 55.9226 48.0068C56.0103 47.8351 56.8074 47.6658 57.1021 47.2908C57.3967 46.9159 57.4871 45.8883 57.0442 45.5914C56.5227 45.2427 54.4811 45.5968 54.2398 45.3834V45.3842Z" fill="#FFEE97"/>
<path d="M19.0898 45.395H17.0183C16.8222 45.395 16.8682 44.7564 16.9378 44.6357H20.6777C20.8458 44.6357 20.8467 45.1901 20.7853 45.3007C20.6904 45.4723 20.3388 45.3486 20.1653 45.4182C20.0704 45.4692 19.9809 45.845 19.9664 45.9548C19.8598 46.7419 20.0695 47.7037 19.9538 48.4598C19.9438 48.5225 19.8851 48.6709 19.8164 48.6709H19.0093C18.9325 48.6292 18.9352 48.5766 18.9262 48.507C18.8466 47.9062 18.8647 46.4612 18.9262 45.8442C18.9433 45.6718 18.9939 45.5427 19.0898 45.395Z" fill="#FFEE97"/>
<path d="M28.4331 44.6427C29.7029 44.6991 31.7554 44.2693 32.2579 45.6695C32.4278 46.1434 32.4603 47.9403 32.3826 48.4591C32.3727 48.5256 32.37 48.582 32.3049 48.6276C32.2118 48.6926 31.374 48.7444 31.3153 48.5426C31.2249 47.7895 31.3993 46.9166 31.3044 46.1782C31.1508 44.9767 29.2989 45.5326 28.3951 45.3741L28.368 44.6798L28.4331 44.6419V44.6427Z" fill="#FFEE97"/>
<path d="M4.07696 46.2261C4.00104 45.6903 3.61422 45.4383 3.02947 45.3934C2.65892 45.3648 1.39001 45.4653 1.17129 45.3718C1.01223 45.3038 0.986016 44.7038 1.20925 44.645C2.23143 44.6991 3.96128 44.3721 4.69154 45.1615C4.81264 45.2929 5.10005 45.7908 5.10005 45.9408V48.599L5.01961 48.6701H4.1583L4.07787 48.599C4.00195 47.8529 4.1809 46.9521 4.07787 46.2254L4.07696 46.2261Z" fill="#FFEE97"/>
<path d="M25.4398 46.2261C25.3638 45.6903 24.977 45.4383 24.3923 45.3934C24.0217 45.3648 22.7528 45.4653 22.5341 45.3718C22.375 45.3038 22.3488 44.7038 22.572 44.645C23.5942 44.6991 25.3241 44.3721 26.0543 45.1615C26.1754 45.2929 26.4628 45.7908 26.4628 45.9408V48.599L26.3824 48.6701H25.5211L25.4407 48.599C25.3647 47.8529 25.5437 46.9521 25.4407 46.2254L25.4398 46.2261Z" fill="#FFEE97"/>
<path d="M48.9355 44.6435C49.0792 44.601 50.2595 44.6188 50.4891 44.6342C51.241 44.6829 51.9433 44.9095 52.2072 45.5868C52.3915 46.0599 52.4241 47.9326 52.3454 48.4599C52.3355 48.5264 52.3328 48.5828 52.2677 48.6284C52.1746 48.6934 51.3368 48.7452 51.2781 48.5434C51.1877 47.7903 51.3621 46.9174 51.2672 46.179C51.2139 45.76 50.8858 45.4708 50.4204 45.4074C50.1113 45.3649 49.053 45.453 48.8993 45.3726C48.7457 45.2922 48.7348 44.7038 48.9355 44.6443V44.6435Z" fill="#FFEE97"/>
<path d="M14.4081 46.1782C14.2464 45.1198 12.9711 45.4909 12.1722 45.3973C11.7881 45.3525 11.8812 44.6961 12.0782 44.645C12.2752 44.594 13.4167 44.6172 13.6806 44.6365C14.2012 44.6737 14.7886 44.8476 15.1077 45.2296C15.199 45.3386 15.4303 45.7816 15.4303 45.8937V48.5998L15.3499 48.6709H14.4886L14.4081 48.5998V46.179V46.1782Z" fill="#FFEE97"/>
<path d="M54.2271 50C54.1024 48.7853 54.2099 47.5428 54.1711 46.3189C54.1819 46.1295 54.2877 46.1202 54.4666 46.1047C54.7215 46.0831 55.2439 46.0328 55.2466 46.3243C55.1481 47.4014 55.3903 48.6887 55.2511 49.7402C55.2366 49.8469 55.2113 49.9281 55.1155 50H54.228H54.2271Z" fill="#FFEE97"/>
<path d="M1.20928 46.1171C1.37196 46.0746 2.06968 46.0576 2.12933 46.2354C2.07239 46.9228 2.24321 47.7949 2.14289 48.4591C2.12933 48.5518 2.11126 48.6307 1.99467 48.6609C1.83199 48.7034 1.13427 48.7204 1.07462 48.5426C1.13155 47.8552 0.960739 46.9831 1.06106 46.3189C1.07462 46.2262 1.09269 46.1473 1.20928 46.1171Z" fill="#FFEE97"/>
<path d="M22.5711 46.1171C22.7338 46.0746 23.4315 46.0576 23.4912 46.2354C23.4342 46.9228 23.6051 47.7949 23.5047 48.4591C23.4912 48.5518 23.4731 48.6307 23.3565 48.6609C23.1938 48.7034 22.4961 48.7204 22.4365 48.5426C22.4934 47.8552 22.3226 46.9831 22.4229 46.3189C22.4365 46.2262 22.4545 46.1473 22.5711 46.1171Z" fill="#FFEE97"/>
<path d="M28.4259 46.1071H29.2863L29.3676 46.1782V48.5998L29.2863 48.6709H28.4259L28.3454 48.5998V46.1782L28.4259 46.1071Z" fill="#FFEE97"/>
<path d="M43.2235 44.6357H44.1382L44.2186 44.7069V46.9382L44.1382 47.0094H43.2235L43.1422 46.9382V44.7069L43.2235 44.6357Z" fill="#FFEE97"/>
<path d="M46.1292 44.6357H47.0438L47.1243 44.7069V46.9382L47.0438 47.0094H46.1292L46.0479 46.9382V44.7069L46.1292 44.6357Z" fill="#FFEE97"/>
</g>
<defs>
<clipPath id="clip0_75_216">
<rect width="59" height="50" fill="white"/>
</clipPath>
</defs>
</svg>
