<svg width="178" height="72" viewBox="0 0 178 72" fill="none" xmlns="http://www.w3.org/2000/svg">
<g filter="url(#filter0_f_75_212)">
<rect x="15" y="15" width="148" height="42" fill="#FFEE99"/>
<rect x="15.5" y="15.5" width="147" height="41" stroke="#FFEE97"/>
</g>
<rect x="18" y="19" width="139" height="34" rx="10" fill="#6C6C6C"/>
<path d="M38.6182 40.016C38.4582 40.016 38.3222 39.968 38.2102 39.872C38.1142 39.76 38.0662 39.624 38.0662 39.464V27.752C38.0662 27.592 38.1142 27.464 38.2102 27.368C38.3222 27.256 38.4582 27.2 38.6182 27.2H39.7462C39.9062 27.2 40.0342 27.256 40.1302 27.368C40.2422 27.464 40.2982 27.592 40.2982 27.752V39.464C40.2982 39.624 40.2422 39.76 40.1302 39.872C40.0342 39.968 39.9062 40.016 39.7462 40.016H38.6182ZM38.4022 44C38.2422 44 38.1062 43.952 37.9942 43.856C37.8982 43.744 37.8502 43.608 37.8502 43.448V41.936C37.8502 41.76 37.8982 41.624 37.9942 41.528C38.1062 41.416 38.2422 41.36 38.4022 41.36H39.9382C40.0982 41.36 40.2262 41.416 40.3222 41.528C40.4342 41.624 40.4902 41.76 40.4902 41.936V43.448C40.4902 43.608 40.4342 43.744 40.3222 43.856C40.2262 43.952 40.0982 44 39.9382 44H38.4022ZM51.797 36.272C51.797 34.992 51.469 34 50.813 33.296C50.173 32.576 49.141 32.216 47.717 32.216H44.189C44.029 32.216 43.893 32.168 43.781 32.072C43.685 31.96 43.637 31.824 43.637 31.664V30.848C43.637 30.688 43.685 30.56 43.781 30.464C43.893 30.352 44.029 30.296 44.189 30.296H47.837C49.229 30.296 50.373 30.512 51.269 30.944C52.181 31.36 52.861 32 53.309 32.864C53.757 33.712 53.981 34.808 53.981 36.152V46.424C53.981 46.584 53.925 46.712 53.813 46.808C53.717 46.92 53.589 46.976 53.429 46.976H52.349C52.173 46.976 52.037 46.92 51.941 46.808C51.845 46.712 51.797 46.584 51.797 46.424V36.272ZM65.2953 44C65.1353 44 64.9993 43.952 64.8873 43.856C64.7913 43.744 64.7433 43.608 64.7433 43.448V36.272C64.7433 34.992 64.4233 34 63.7833 33.296C63.1433 32.576 62.1113 32.216 60.6873 32.216H57.5433C57.3833 32.216 57.2473 32.168 57.1353 32.072C57.0393 31.96 56.9913 31.824 56.9913 31.664V30.848C56.9913 30.688 57.0393 30.56 57.1353 30.464C57.2473 30.352 57.3833 30.296 57.5433 30.296H60.8073C62.1833 30.296 63.3193 30.512 64.2153 30.944C65.1273 31.376 65.8073 32.032 66.2553 32.912C66.7033 33.776 66.9273 34.856 66.9273 36.152V43.448C66.9273 43.608 66.8713 43.744 66.7593 43.856C66.6633 43.952 66.5353 44 66.3753 44H65.2953ZM76.0138 44C75.6618 44 75.4858 43.824 75.4858 43.472V34.904C75.4858 33.96 75.5978 33.224 75.8218 32.696C76.0458 32.168 76.3258 31.904 76.6618 31.904H79.0138C78.6138 31.904 78.2858 32.208 78.0298 32.816C77.7898 33.424 77.6698 34.176 77.6698 35.072V43.472C77.6698 43.632 77.6138 43.76 77.5018 43.856C77.3898 43.952 77.2538 44 77.0938 44H76.0138ZM69.5338 32.216C69.3738 32.216 69.2378 32.168 69.1258 32.072C69.0298 31.96 68.9818 31.824 68.9818 31.664V30.848C68.9818 30.688 69.0298 30.56 69.1258 30.464C69.2378 30.352 69.3738 30.296 69.5338 30.296H79.8298C79.9898 30.296 80.1178 30.352 80.2137 30.464C80.3258 30.56 80.3818 30.688 80.3818 30.848V31.664C80.3818 31.824 80.3258 31.96 80.2137 32.072C80.1178 32.168 79.9898 32.216 79.8298 32.216H69.5338ZM86.2531 44.216C86.1091 44.264 85.9731 44.24 85.8451 44.144C85.7171 44.064 85.6531 43.944 85.6531 43.784V42.68C85.6531 42.536 85.6931 42.408 85.7731 42.296C85.8691 42.184 86.0051 42.096 86.1811 42.032L87.1171 41.672C87.7411 41.4 88.3091 41.072 88.8211 40.688C89.3491 40.304 89.7571 39.776 90.0451 39.104C90.3491 38.432 90.5011 37.552 90.5011 36.464C90.5011 35.424 90.3731 34.6 90.1171 33.992C89.8771 33.368 89.4611 32.928 88.8691 32.672C88.2931 32.4 87.5011 32.264 86.4931 32.264H85.7731C85.6131 32.264 85.4771 32.216 85.3651 32.12C85.2691 32.008 85.2211 31.872 85.2211 31.712V30.848C85.2211 30.688 85.2691 30.56 85.3651 30.464C85.4771 30.352 85.6131 30.296 85.7731 30.296H86.8291C88.2851 30.296 89.4451 30.504 90.3091 30.92C91.1731 31.336 91.7891 32.008 92.1571 32.936C92.5411 33.848 92.7331 35.048 92.7331 36.536C92.7331 37.656 92.5811 38.624 92.2771 39.44C91.9731 40.256 91.5571 40.952 91.0291 41.528C90.5171 42.104 89.9331 42.584 89.2771 42.968C88.6211 43.336 87.9411 43.64 87.2371 43.88L86.2531 44.216ZM86.3011 32.264L83.4451 32.24C83.2851 32.24 83.1491 32.192 83.0371 32.096C82.9411 32 82.8931 31.872 82.8931 31.712V27.512C82.8931 27.352 82.9411 27.224 83.0371 27.128C83.1491 27.016 83.2851 26.96 83.4451 26.96H84.4531C84.6291 26.96 84.7651 27.016 84.8611 27.128C84.9571 27.224 85.0051 27.352 85.0051 27.512V30.296H86.3491L86.3011 32.264ZM102.322 44C102.162 44 102.026 43.952 101.914 43.856C101.818 43.744 101.77 43.608 101.77 43.448V30.848C101.77 30.688 101.818 30.56 101.914 30.464C102.026 30.352 102.162 30.296 102.322 30.296H103.45C103.626 30.296 103.762 30.352 103.858 30.464C103.954 30.56 104.002 30.688 104.002 30.848V43.448C104.002 43.608 103.954 43.744 103.858 43.856C103.762 43.952 103.626 44 103.45 44H102.322ZM117.036 44C116.86 44 116.724 43.952 116.628 43.856C116.532 43.76 116.444 43.672 116.364 43.592L107.556 31.232C107.444 31.056 107.388 30.904 107.388 30.776C107.388 30.648 107.436 30.536 107.532 30.44C107.644 30.344 107.764 30.296 107.892 30.296H109.02C109.196 30.296 109.332 30.344 109.428 30.44C109.54 30.536 109.628 30.624 109.692 30.704L118.524 43.064C118.588 43.176 118.628 43.264 118.644 43.328C118.676 43.392 118.692 43.456 118.692 43.52C118.692 43.648 118.644 43.76 118.548 43.856C118.452 43.952 118.34 44 118.212 44H117.036ZM107.676 44C107.516 44 107.38 43.952 107.268 43.856C107.172 43.744 107.124 43.608 107.124 43.448V39.848C107.124 39.112 107.196 38.416 107.34 37.76C107.484 37.088 107.764 36.456 108.18 35.864C108.612 35.256 109.252 34.688 110.1 34.16L111.204 35.768C110.628 36.136 110.196 36.56 109.908 37.04C109.62 37.504 109.428 37.992 109.332 38.504C109.236 39 109.188 39.48 109.188 39.944V43.448C109.188 43.608 109.132 43.744 109.02 43.856C108.924 43.952 108.796 44 108.636 44H107.676ZM115.116 39.608L114.132 37.952C114.916 37.584 115.468 37.2 115.788 36.8C116.124 36.4 116.324 35.984 116.388 35.552C116.452 35.104 116.484 34.64 116.484 34.16V30.848C116.484 30.688 116.532 30.56 116.628 30.464C116.74 30.352 116.876 30.296 117.036 30.296H118.044C118.204 30.296 118.332 30.352 118.428 30.464C118.54 30.56 118.596 30.688 118.596 30.848V34.28C118.596 34.952 118.516 35.6 118.356 36.224C118.196 36.848 117.868 37.44 117.372 38C116.892 38.544 116.14 39.08 115.116 39.608ZM121.857 44C121.697 44 121.561 43.952 121.449 43.856C121.353 43.744 121.305 43.608 121.305 43.448V42.608C121.305 42.448 121.353 42.32 121.449 42.224C121.561 42.112 121.697 42.056 121.857 42.056H128.361L120.849 31.232C120.801 31.136 120.761 31.056 120.729 30.992C120.697 30.912 120.681 30.84 120.681 30.776C120.681 30.648 120.729 30.536 120.825 30.44C120.937 30.344 121.057 30.296 121.185 30.296H122.337C122.513 30.296 122.649 30.344 122.745 30.44C122.841 30.52 122.921 30.608 122.985 30.704L130.809 41.912C130.889 42.024 130.953 42.144 131.001 42.272C131.065 42.384 131.097 42.512 131.097 42.656V43.448C131.097 43.608 131.041 43.744 130.929 43.856C130.833 43.952 130.705 44 130.545 44H121.857ZM127.929 38.528L126.873 36.968C127.721 36.664 128.329 36.168 128.697 35.48C129.065 34.776 129.249 33.92 129.249 32.912V30.848C129.249 30.688 129.297 30.56 129.393 30.464C129.505 30.352 129.641 30.296 129.801 30.296H130.809C130.969 30.296 131.097 30.352 131.193 30.464C131.289 30.56 131.337 30.688 131.337 30.848V33.2C131.337 34.496 131.049 35.6 130.473 36.512C129.897 37.424 129.049 38.096 127.929 38.528Z" fill="#FFEE97"/>
<defs>
<filter id="filter0_f_75_212" x="0.1" y="0.1" width="177.8" height="71.8" filterUnits="userSpaceOnUse" color-interpolation-filters="sRGB">
<feFlood flood-opacity="0" result="BackgroundImageFix"/>
<feBlend mode="normal" in="SourceGraphic" in2="BackgroundImageFix" result="shape"/>
<feGaussianBlur stdDeviation="7.45" result="effect1_foregroundBlur_75_212"/>
</filter>
</defs>
</svg>
