<svg width="190" height="168" viewBox="0 0 190 168" fill="none" xmlns="http://www.w3.org/2000/svg">
<rect x="25.0957" y="90.3409" width="138.028" height="77.6604" fill="#F9C579"/>
<g filter="url(#filter0_f_89_75)">
<ellipse cx="94.1097" cy="101.435" rx="67.6199" ry="14.2642" fill="#D18632"/>
</g>
<rect x="21.1141" y="63.5975" width="145.994" height="36.0528" fill="#F9C579" stroke="#9C6411" stroke-width="0.4"/>
<rect x="33.4624" y="30.1145" width="124.086" height="33.283" fill="#DB9B49"/>
<rect x="33.6624" y="0.201343" width="123.686" height="29.7132" fill="#EBAB58" stroke="#9C6411" stroke-width="0.4"/>
<path d="M156.851 63.3976V29.3221L167.307 63.3976H156.851Z" fill="#B86600" stroke="#66461A" stroke-width="0.4"/>
<path d="M32.7651 64.19V30.1145L22.3084 64.19H32.7651Z" fill="#B86600" stroke="#66461A" stroke-width="0.4"/>
<rect x="0.243871" y="0.119486" width="23.4921" height="34.0567" transform="matrix(0.932716 -0.360611 0.286637 0.958039 156.93 30.3348)" fill="#EBAB58" stroke="#9C6411" stroke-width="0.4"/>
<rect x="-0.243871" y="0.119486" width="23.4921" height="34.0567" transform="matrix(-0.932716 -0.360611 -0.286637 0.958039 31.724 30.7229)" fill="#EBAB58" stroke="#9C6411" stroke-width="0.4"/>
<g filter="url(#filter1_f_89_75)">
<path d="M136.341 30.2266L134.251 33.7735L143.21 42.3643L155.609 33.5051L151.301 21.2704L136.341 30.2266Z" fill="white"/>
<path d="M139.585 25.5623L137.113 29.7566L151.027 21.3214L139.585 25.5623Z" fill="white" stroke="white"/>
<path d="M139.677 25.4052C136.455 23.529 133.068 22.0035 129.71 20.916C126.352 19.8285 123.089 19.2002 120.107 19.0671C117.125 18.9339 114.482 19.2984 112.33 20.1398C110.178 20.9813 108.558 22.2831 107.563 23.9711C106.569 25.659 106.218 27.7 106.533 29.9774C106.847 32.2549 107.819 34.7243 109.395 37.2445C110.97 39.7648 113.117 42.2866 115.714 44.666C118.31 47.0454 121.305 49.2358 124.528 51.1121L132.102 38.2586L139.677 25.4052Z" fill="white"/>
<path d="M97.0965 67.1197C97.8291 73.4118 101.14 80.7739 101.14 80.7739C101.14 80.7739 110.715 84.5387 118.099 79.3484C129.476 71.3516 144.272 42.4251 141.041 40.4189C137.809 38.4128 116.079 20.9056 111.255 21.9274C106.431 22.9493 95.1494 50.3977 97.0965 67.1197Z" fill="white" stroke="white" stroke-width="3"/>
</g>
<path d="M133.724 33.4608L131.718 36.865L138.721 44.1812L149.804 35.2029L146.98 24.2237L133.724 33.4608Z" fill="#464646"/>
<path d="M136.78 28.9514L134.408 32.9769L146.745 24.2886L136.78 28.9514Z" fill="#8D8D8D" stroke="#8D8D8D"/>
<path d="M136.869 28.8007C134.269 27.2867 131.506 26.1066 128.738 25.3277C125.971 24.5489 123.252 24.1866 120.738 24.2616C118.225 24.3365 115.965 24.8472 114.087 25.7645C112.21 26.6818 110.753 27.9877 109.798 29.6077C108.843 31.2278 108.41 33.1301 108.523 35.2062C108.636 37.2823 109.294 39.4914 110.457 41.7075C111.621 43.9236 113.268 46.1033 115.305 48.122C117.342 50.1407 119.729 51.959 122.33 53.473L129.599 41.1369L136.869 28.8007Z" fill="#8D8D8D"/>
<path d="M98.0501 70.0288C98.248 75.7735 100.555 82.3326 100.555 82.3326C100.555 82.3326 108.403 85.1645 114.998 79.8965C125.159 71.7801 139.616 44.1667 137.016 42.5337C134.417 40.9006 117.208 26.2211 113.058 27.4815C108.909 28.7419 97.5243 54.7616 98.0501 70.0288Z" fill="#ABCFCC" stroke="#464646" stroke-width="3"/>
<g filter="url(#filter2_f_89_75)">
<path d="M86.4077 27.265L84.3175 30.8119L93.3052 39.4193L105.719 30.5686L101.387 18.3203L86.4077 27.265Z" fill="white"/>
<path d="M89.6519 22.6013L87.1802 26.7956L101.113 18.371L89.6519 22.6013Z" fill="white" stroke="white"/>
<path d="M89.7447 22.4442C86.5134 20.5628 83.1178 19.0323 79.7517 17.9401C76.3857 16.8478 73.1152 16.2152 70.127 16.0784C67.1387 15.9416 64.4912 16.3033 62.3356 17.1428C60.1801 17.9822 58.5586 19.2831 57.5639 20.971C56.5692 22.6589 56.2207 24.7009 56.5382 26.9803C56.8558 29.2598 57.8333 31.732 59.4148 34.2559C60.9963 36.7798 63.1509 39.3059 65.7556 41.6901C68.3603 44.0742 71.364 46.2697 74.5954 48.1511L82.17 35.2976L89.7447 22.4442Z" fill="white"/>
<path d="M47.1273 64.1374C47.869 70.4348 51.1951 77.8059 51.1951 77.8059C51.1951 77.8059 60.7944 81.5846 68.1875 76.3995C79.5782 68.4106 94.3695 39.4814 91.1291 37.47C87.8887 35.4586 66.0933 17.9135 61.2608 18.9303C56.4282 19.9471 45.1563 47.4014 47.1273 64.1374Z" fill="white" stroke="white" stroke-width="3"/>
</g>
<path d="M83.4208 30.9814L81.4147 34.3856L88.4178 41.7018L99.5008 32.7235L96.6768 21.7443L83.4208 30.9814Z" fill="#464646"/>
<path d="M86.4772 26.472L84.105 30.4975L96.4419 21.8093L86.4772 26.472Z" fill="#8D8D8D" stroke="#8D8D8D"/>
<path d="M86.5661 26.3213C83.9658 24.8073 81.2028 23.6272 78.4351 22.8484C75.6673 22.0695 72.949 21.7073 70.4352 21.7822C67.9214 21.8571 65.6614 22.3678 63.7843 23.2851C61.9071 24.2024 60.4496 25.5084 59.4949 27.1284C58.5402 28.7484 58.1071 30.6507 58.2202 32.7268C58.3333 34.8029 58.9904 37.0121 60.1541 39.2282C61.3177 41.4443 62.9651 43.6239 65.0022 45.6426C67.0392 47.6614 69.4261 49.4796 72.0264 50.9937L79.2963 38.6575L86.5661 26.3213Z" fill="#8D8D8D"/>
<path d="M47.7469 67.5494C47.9448 73.2942 50.2517 79.8532 50.2517 79.8532C50.2517 79.8532 58.0997 82.6851 64.6948 77.4171C74.8557 69.3007 89.3123 41.6873 86.7131 40.0543C84.1139 38.4213 66.9047 23.7417 62.7552 25.0021C58.6058 26.2626 47.2211 52.2822 47.7469 67.5494Z" fill="#ABCFCC" stroke="#464646" stroke-width="3"/>
<rect x="21.2" y="63.2013" width="145.994" height="36.0528" fill="#F9C579" stroke="#9C6411" stroke-width="0.4"/>
<defs>
<filter id="filter0_f_89_75" x="15.2897" y="75.9711" width="157.64" height="50.9283" filterUnits="userSpaceOnUse" color-interpolation-filters="sRGB">
<feFlood flood-opacity="0" result="BackgroundImageFix"/>
<feBlend mode="normal" in="SourceGraphic" in2="BackgroundImageFix" result="shape"/>
<feGaussianBlur stdDeviation="5.6" result="effect1_foregroundBlur_89_75"/>
</filter>
<filter id="filter1_f_89_75" x="89.4696" y="13.1403" width="72.0393" height="76.3492" filterUnits="userSpaceOnUse" color-interpolation-filters="sRGB">
<feFlood flood-opacity="0" result="BackgroundImageFix"/>
<feBlend mode="normal" in="SourceGraphic" in2="BackgroundImageFix" result="shape"/>
<feGaussianBlur stdDeviation="2.95" result="effect1_foregroundBlur_89_75"/>
</filter>
<filter id="filter2_f_89_75" x="39.495" y="10.1502" width="72.1232" height="76.3812" filterUnits="userSpaceOnUse" color-interpolation-filters="sRGB">
<feFlood flood-opacity="0" result="BackgroundImageFix"/>
<feBlend mode="normal" in="SourceGraphic" in2="BackgroundImageFix" result="shape"/>
<feGaussianBlur stdDeviation="2.95" result="effect1_foregroundBlur_89_75"/>
</filter>
</defs>
</svg>
