<svg width="190" height="168" viewBox="0 0 190 168" fill="none" xmlns="http://www.w3.org/2000/svg">
<rect x="25.0962" y="90.3397" width="138.028" height="77.6604" fill="#F9C579"/>
<g filter="url(#filter0_f_89_26)">
<ellipse cx="94.1102" cy="101.434" rx="67.6199" ry="14.2642" fill="#D18632"/>
</g>
<rect x="21.1146" y="63.5962" width="145.994" height="36.0528" fill="#F9C579" stroke="#9C6411" stroke-width="0.4"/>
<rect x="33.4629" y="30.1132" width="124.086" height="33.283" fill="#DB9B49"/>
<rect x="33.6629" y="0.200061" width="123.686" height="29.7132" fill="#EBAB58" stroke="#9C6411" stroke-width="0.4"/>
<path d="M156.851 63.3963V29.3208L167.308 63.3963H156.851Z" fill="#B86600" stroke="#66461A" stroke-width="0.4"/>
<path d="M32.7656 64.1887V30.1132L22.3089 64.1887H32.7656Z" fill="#B86600" stroke="#66461A" stroke-width="0.4"/>
<rect x="0.243871" y="0.119486" width="23.4921" height="34.0567" transform="matrix(0.932716 -0.360611 0.286637 0.958039 156.93 30.3336)" fill="#EBAB58" stroke="#9C6411" stroke-width="0.4"/>
<rect x="-0.243871" y="0.119486" width="23.4921" height="34.0567" transform="matrix(-0.932716 -0.360611 -0.286637 0.958039 31.724 30.7216)" fill="#EBAB58" stroke="#9C6411" stroke-width="0.4"/>
<g filter="url(#filter1_f_89_26)">
<path d="M87.9708 32.0754L85.8568 35.4723L94.9177 43.7L107.457 35.2153L103.1 23.4978L87.9708 32.0754Z" fill="white"/>
<path d="M91.2508 27.6082L88.751 31.6252L102.824 23.5466L91.2508 27.6082Z" fill="white" stroke="white"/>
<path d="M91.3444 27.4579C88.0853 25.6609 84.6599 24.1999 81.2639 23.1584C77.8679 22.1169 74.5677 21.5152 71.5518 21.3876C68.5358 21.2601 65.8633 21.6092 63.6866 22.415C61.5099 23.2209 59.8718 24.4677 58.8658 26.0843C57.8598 27.7009 57.5056 29.6556 57.8233 31.8368C58.1411 34.0179 59.1247 36.3829 60.7178 38.7967C62.311 41.2104 64.4826 43.6256 67.1087 45.9044C69.7347 48.1832 72.7638 50.281 76.0229 52.078L83.6837 39.7679L91.3444 27.4579Z" fill="white"/>
<path d="M48.2798 67.4088C49.0207 73.435 52.3688 80.4858 52.3688 80.4858C52.3688 80.4858 62.053 84.0914 69.5212 79.1206C81.0276 71.4619 95.9917 43.7581 92.7235 41.8368C89.4553 39.9154 67.4783 23.1483 62.5995 24.127C57.7207 25.1056 46.3106 51.3937 48.2798 67.4088Z" fill="white" stroke="white" stroke-width="3"/>
</g>
<path d="M82.3004 34.8881L80.3982 38.3108L87.5676 44.946L98.3474 35.55L95.2351 25.1033L82.3004 34.8881Z" fill="#464646"/>
<path d="M85.2186 30.3301L82.9692 34.3774L95.0046 25.1823L85.2186 30.3301Z" fill="#8D8D8D" stroke="#8D8D8D"/>
<path d="M85.3068 30.1802C82.6778 28.8804 79.8963 27.9142 77.121 27.3367C74.3458 26.7591 71.6311 26.5816 69.1321 26.8143C66.633 27.0469 64.3985 27.6852 62.5561 28.6926C60.7137 29.7 59.2995 31.0569 58.3943 32.6857C57.489 34.3144 57.1105 36.1833 57.2802 38.1855C57.4499 40.1877 58.1646 42.2841 59.3835 44.3549C60.6023 46.4257 62.3015 48.4304 64.3839 50.2546C66.4663 52.0787 68.8912 53.6866 71.5202 54.9864L78.4135 42.5833L85.3068 30.1802Z" fill="#8D8D8D"/>
<path d="M47.8198 72.5575C48.175 78.1051 50.6511 84.3066 50.6511 84.3066C50.6511 84.3066 58.5375 86.5477 64.9542 81.0288C74.8403 72.5258 88.4632 44.8782 85.8321 43.4632C83.201 42.0482 65.674 28.9362 61.5802 30.4204C57.4864 31.9047 46.876 57.814 47.8198 72.5575Z" fill="#ABCFCC" stroke="#464646" stroke-width="3"/>
<path opacity="0.56" d="M51.4666 83.2127L55.2496 74.0984L53.7439 69.1931L58.5064 53.2401L57.1475 51.0703" stroke="#636363" stroke-width="0.5"/>
<path opacity="0.56" d="M53.4307 78.525L56.5987 78.5934L59.3511 74.7947L70.4432 67.2969L69.7983 63.1501" stroke="#636363" stroke-width="0.5"/>
<path opacity="0.56" d="M55.1771 74.229L59.5885 69.7527L60.6142 65.5997L65.6969 62.4539L70.9179 47.0603L69.6859 42.124L71.3054 40.5946" stroke="#636363" stroke-width="0.5"/>
<path opacity="0.56" d="M63.7858 71.6613L63.8996 75.3791L68.3243 74.5709" stroke="#636363" stroke-width="0.5"/>
<path opacity="0.56" d="M57.7764 55.7083L54.9399 58.966L54.765 56.0502L52.4463 56.0689" stroke="#636363" stroke-width="0.5"/>
<path opacity="0.56" d="M63.1564 64.0268L62.0646 59.9919L64.5317 55.5529L60.9463 48.6209L62.2409 45.5993L60.8638 40.9241L62.1022 37.542" stroke="#636363" stroke-width="0.5"/>
<g filter="url(#filter2_f_89_26)">
<path d="M136.971 34.0754L134.857 37.4723L143.918 45.7L156.458 37.2153L152.101 25.4978L136.971 34.0754Z" fill="white"/>
<path d="M140.251 29.6082L137.751 33.6252L151.824 25.5466L140.251 29.6082Z" fill="white" stroke="white"/>
<path d="M140.345 29.4579C137.086 27.6609 133.66 26.1999 130.264 25.1584C126.868 24.1169 123.568 23.5152 120.552 23.3876C117.536 23.2601 114.864 23.6092 112.687 24.415C110.51 25.2209 108.872 26.4677 107.866 28.0843C106.86 29.7009 106.506 31.6556 106.824 33.8368C107.142 36.0179 108.125 38.3829 109.718 40.7967C111.312 43.2104 113.483 45.6256 116.109 47.9044C118.735 50.1832 121.764 52.281 125.023 54.078L132.684 41.7679L140.345 29.4579Z" fill="white"/>
<path d="M97.2803 69.4088C98.0212 75.435 101.369 82.4858 101.369 82.4858C101.369 82.4858 111.053 86.0914 118.522 81.1206C130.028 73.4619 144.992 45.7581 141.724 43.8368C138.456 41.9154 116.479 25.1483 111.6 26.127C106.721 27.1056 95.3111 53.3937 97.2803 69.4088Z" fill="white" stroke="white" stroke-width="3"/>
</g>
<path d="M131.301 36.8881L129.399 40.3108L136.568 46.946L147.348 37.55L144.236 27.1033L131.301 36.8881Z" fill="#464646"/>
<path d="M134.219 32.3301L131.97 36.3774L144.005 27.1823L134.219 32.3301Z" fill="#8D8D8D" stroke="#8D8D8D"/>
<path d="M134.307 32.1802C131.678 30.8804 128.897 29.9142 126.122 29.3367C123.346 28.7591 120.632 28.5816 118.133 28.8143C115.633 29.0469 113.399 29.6852 111.557 30.6926C109.714 31.7 108.3 33.0569 107.395 34.6857C106.49 36.3144 106.111 38.1833 106.281 40.1855C106.45 42.1877 107.165 44.2841 108.384 46.3549C109.603 48.4257 111.302 50.4304 113.384 52.2546C115.467 54.0787 117.892 55.6866 120.521 56.9864L127.414 44.5833L134.307 32.1802Z" fill="#8D8D8D"/>
<path d="M96.8203 74.5575C97.1755 80.1051 99.6515 86.3066 99.6515 86.3066C99.6515 86.3066 107.538 88.5477 113.955 83.0288C123.841 74.5258 137.464 46.8782 134.833 45.4632C132.201 44.0482 114.675 30.9362 110.581 32.4204C106.487 33.9047 95.8765 59.814 96.8203 74.5575Z" fill="#ABCFCC" stroke="#464646" stroke-width="3"/>
<path opacity="0.56" d="M100.467 85.2127L104.25 76.0984L102.744 71.1931L107.507 55.2401L106.148 53.0703" stroke="#636363" stroke-width="0.5"/>
<path opacity="0.56" d="M102.431 80.525L105.599 80.5934L108.352 76.7947L119.444 69.2969L118.799 65.1501" stroke="#636363" stroke-width="0.5"/>
<path opacity="0.56" d="M104.178 76.229L108.589 71.7527L109.615 67.5997L114.697 64.4539L119.918 49.0603L118.686 44.124L120.306 42.5946" stroke="#636363" stroke-width="0.5"/>
<path opacity="0.56" d="M112.786 73.6613L112.9 77.3791L117.325 76.5709" stroke="#636363" stroke-width="0.5"/>
<path opacity="0.56" d="M106.777 57.7083L103.94 60.966L103.766 58.0502L101.447 58.0689" stroke="#636363" stroke-width="0.5"/>
<path opacity="0.56" d="M112.157 66.0268L111.065 61.9919L113.532 57.5529L109.947 50.6209L111.241 47.5993L109.864 42.9241L111.103 39.542" stroke="#636363" stroke-width="0.5"/>
<rect x="21.2005" y="63.2" width="145.994" height="36.0528" fill="#F9C579" stroke="#9C6411" stroke-width="0.4"/>
<defs>
<filter id="filter0_f_89_26" x="15.2902" y="75.9699" width="157.64" height="50.9283" filterUnits="userSpaceOnUse" color-interpolation-filters="sRGB">
<feFlood flood-opacity="0" result="BackgroundImageFix"/>
<feBlend mode="normal" in="SourceGraphic" in2="BackgroundImageFix" result="shape"/>
<feGaussianBlur stdDeviation="5.6" result="effect1_foregroundBlur_89_26"/>
</filter>
<filter id="filter1_f_89_26" x="40.62" y="15.4619" width="72.7375" height="73.6522" filterUnits="userSpaceOnUse" color-interpolation-filters="sRGB">
<feFlood flood-opacity="0" result="BackgroundImageFix"/>
<feBlend mode="normal" in="SourceGraphic" in2="BackgroundImageFix" result="shape"/>
<feGaussianBlur stdDeviation="2.95" result="effect1_foregroundBlur_89_26"/>
</filter>
<filter id="filter2_f_89_26" x="89.6205" y="17.4619" width="72.7375" height="73.6522" filterUnits="userSpaceOnUse" color-interpolation-filters="sRGB">
<feFlood flood-opacity="0" result="BackgroundImageFix"/>
<feBlend mode="normal" in="SourceGraphic" in2="BackgroundImageFix" result="shape"/>
<feGaussianBlur stdDeviation="2.95" result="effect1_foregroundBlur_89_26"/>
</filter>
</defs>
</svg>
