<svg width="168" height="229" viewBox="0 0 168 229" fill="none" xmlns="http://www.w3.org/2000/svg">
<rect x="6" width="160" height="224.42" rx="10" fill="#FFEE97"/>
<path d="M0.0660975 203.237C1.13563 213.486 17.2645 226.853 17.2645 226.853L167.592 229C167.592 229 168.511 222.931 167.592 219.124C165.948 212.314 160.521 209.468 156.126 203.237C152.59 198.224 146.737 195.898 147.208 190.356C147.629 185.412 154.153 183.962 156.126 179.192C158.531 173.377 156.126 163.734 156.126 163.734C156.126 163.734 149.411 170.958 143.386 174.469C139.733 176.598 133.195 179.192 133.195 179.192C133.195 179.192 143.386 168.887 143.386 160.299C143.386 151.712 141.476 149.565 133.195 142.266C124.914 134.966 119.128 133.485 116.633 125.949C115.171 121.53 116.633 114.356 116.633 114.356C116.633 114.356 109.596 119.335 107.716 123.373C105.704 127.692 107.716 134.966 107.716 134.966C107.716 134.966 96.6253 124.377 94.976 116.503C93.4315 109.13 100.143 105.001 98.7978 97.6102C97.1988 88.8221 84.7843 77 84.7843 77C84.7843 77 90.2126 86.4343 88.6062 92.4576C86.7018 99.5982 80.6855 102.626 73.3187 107.915C66.031 113.148 66.6809 111.191 59.52 116.503C50.6798 123.06 45.0257 126.176 43.3807 134.966C41.7722 143.561 43.3807 160.299 43.3807 160.299L40.1958 172.322C40.1958 172.322 38.5875 164.579 35.0999 160.299C30.4414 154.583 17.2645 148.706 17.2645 148.706C17.2645 148.706 23.1704 163.076 21.7234 172.322C19.6453 185.6 -1.32383 189.919 0.0660975 203.237Z" fill="#FE6930"/>
<path d="M45.3962 200.478C52.0528 208.134 56.9461 217.575 70.078 222.814C85.9142 229.132 115.602 222.814 115.602 222.814C115.602 222.814 125.277 221.176 129.863 218.089C134.598 214.901 137.432 212.214 138.09 207.351C138.704 202.813 136.989 199.95 133.702 196.183C131.651 193.832 127.976 193.795 127.12 191.028C126.275 188.295 129.225 186.923 129.863 184.156C130.776 180.194 129.863 173.847 129.863 173.847C129.863 173.847 126.597 178.181 123.281 179.86C120.607 181.215 115.602 182.008 115.602 182.008C111.628 180.923 112.86 173.847 112.86 173.847C113.052 169.198 117.414 167.481 119.441 163.108C121.551 158.558 120.564 157.99 119.441 153.229C118.427 148.927 115.602 141.631 115.602 141.631C115.602 141.631 113.391 148.641 109.02 151.081C105.256 153.184 102.072 153.782 97.5021 153.229C91.0503 152.447 88.6079 148.839 84.887 144.638C80.6406 139.844 80.0677 136.22 78.8537 130.463C77.5973 124.505 78.8537 115 78.8537 115C78.8537 115 72.8287 118.748 70.078 121.873C65.2688 127.336 64.0446 138.195 64.0446 138.195C64.0446 138.195 63.1592 147.399 64.0446 153.229C65.1185 160.3 71.3919 163.794 70.078 170.84C68.9982 176.63 68.1857 181.879 61.3022 184.156C55.4957 186.077 50.4194 184.99 45.3962 182.008C41.5603 179.731 38.8144 173.847 38.8144 173.847C38.8144 173.847 37.2699 182.878 38.8144 188.451C40.1983 193.445 41.7238 196.254 45.3962 200.478Z" fill="#FECD03"/>
<path d="M69.0639 212.588C72.5906 217.163 80.0142 225.189 80.0142 225.189L104.118 225.189C104.118 225.189 108.777 224.047 110.9 222.095C113.092 220.08 114.376 218.398 114.518 215.42C114.651 212.641 113.71 210.919 111.969 208.668C110.883 207.263 109.089 207.295 108.571 205.618C108.059 203.963 109.447 203.082 109.656 201.383C109.956 198.952 109.279 195.091 109.279 195.091C109.279 195.091 107.845 197.784 106.289 198.858C105.035 199.724 102.623 200.282 102.623 200.282C100.646 199.678 100.987 195.341 100.987 195.341C100.911 192.5 102.975 191.388 103.803 188.69C104.665 185.881 104.163 185.549 103.441 182.66C102.789 180.049 101.144 175.637 101.144 175.637C101.144 175.637 100.322 179.948 98.2806 181.502C96.5218 182.84 94.9911 183.253 92.7424 182.982C89.5675 182.6 88.2443 180.434 86.2759 177.924C84.0294 175.06 83.6173 172.857 82.8143 169.361C81.9834 165.743 82.2478 159.922 82.2478 159.922C82.2478 159.922 79.447 162.298 78.2201 164.246C76.075 167.652 75.8759 174.298 75.8759 174.298C75.8759 174.298 75.7814 179.929 76.4268 183.474C77.2095 187.774 80.3968 189.815 80.0142 194.135C79.6998 197.685 79.4958 200.9 76.2225 202.391C73.4613 203.649 70.9461 203.061 68.3872 201.314C66.4332 199.981 64.8785 196.43 64.8785 196.43C64.8785 196.43 64.4562 201.964 65.4136 205.344C66.2714 208.372 67.1183 210.064 69.0639 212.588Z" fill="#FEFF9C"/>
</svg>
