<svg width="51" height="52" viewBox="0 0 51 52" fill="none" xmlns="http://www.w3.org/2000/svg">
<path d="M2.65805 30.3473C-3.78553 22.7747 2.475 14.112 10.891 7.87759C18.3786 2.33099 28.3484 -3.15081 36.1045 2.15803C40.7733 5.35367 38.6839 9.55581 41.2501 14.0057C44.1769 19.0808 49.1222 20.7903 50.5122 26.2619C53.2721 37.1255 43.9224 57.1469 32.5026 50.7743C26.1523 47.2307 27.6385 45.3751 22.2113 40.9694C15.7236 35.7028 7.85223 36.4516 2.65805 30.3473Z" fill="#959595"/>
<path d="M7.18223 29.4321C2.13476 23.4538 7.03885 16.6147 13.6314 11.6928C19.4966 7.31395 27.3063 2.98621 33.382 7.1774C37.0392 9.70028 35.4025 13.0178 37.4127 16.5308C39.7053 20.5375 43.5791 21.8871 44.668 26.2068C46.8299 34.7833 39.506 50.5897 30.5605 45.5587C25.5861 42.761 26.7503 41.2962 22.499 37.8179C17.4169 33.6601 11.251 34.2512 7.18223 29.4321Z" fill="#828181"/>
</svg>
