<svg width="56" height="55" viewBox="0 0 56 55" fill="none" xmlns="http://www.w3.org/2000/svg">
<path d="M18.6022 3.76874C10.7178 6.98955 1.85025 19.5851 5.69916 28.37C8.55806 34.8952 17.4876 37.6157 22.0638 41.7892C26.9177 46.2158 22.1541 46.3437 27.5585 49.5593C34.7689 53.8494 43.3873 48.0474 48.2959 37.6209C52.8485 27.9507 54.9742 13.9571 48.2033 10.1973C43.6985 7.69581 45.3535 8.53962 40.2618 8.47262C32.6926 8.37301 26.2042 0.663287 18.6022 3.76874Z" fill="#959595"/>
<path d="M22.6455 8.25602C16.2362 10.7259 9.09185 20.5423 12.2949 27.4608C14.6741 32.5997 21.9788 34.7976 25.7422 38.1041C29.734 41.6111 25.8485 41.6773 30.2807 44.2383C36.1941 47.6552 43.1838 43.1658 47.1138 35.0225C50.7587 27.4698 52.3926 16.5085 46.8417 13.5108C43.1485 11.5163 44.5047 12.19 40.3502 12.101C34.1742 11.9686 28.8254 5.87459 22.6455 8.25602Z" fill="#828181"/>
</svg>
