<svg width="42" height="52" viewBox="0 0 42 52" fill="none" xmlns="http://www.w3.org/2000/svg">
<path d="M1.15538 25.4561C-0.256061 36.499 3.97089 48.8508 13.3499 49.8771C22.1884 50.8443 24.5577 39.633 29.9509 31.1916C35.2352 22.9207 43.9779 17.1042 40.4446 7.76044C36.4455 -2.81502 24.1672 1.57779 15.2354 6.66059C7.77258 10.9075 2.38783 15.8136 1.15538 25.4561Z" fill="#959595"/>
<path d="M5.16775 22.4986C4.03397 30.8379 7.57334 40.1841 15.3431 40.9893C22.6651 41.7481 24.5915 33.2845 29.0307 26.9235C33.3803 20.6908 40.6015 16.3237 37.6461 9.25254C34.301 1.24924 24.1476 4.52946 16.7675 8.34163C10.6012 11.5268 6.15776 15.2168 5.16775 22.4986Z" fill="#828181"/>
</svg>
