<svg width="69" height="72" viewBox="0 0 69 72" fill="none" xmlns="http://www.w3.org/2000/svg">
<path d="M11.3596 21.0583C5.43186 27.2656 9.8404 28.7417 13.1157 37.1758C16.2276 45.1894 16.8999 51.4338 23.4138 56.4533C34.3026 64.8438 58.6276 64.5742 56.5158 50.2681C55.6748 44.57 54.2527 42.7457 52.365 37.3325C49.7069 29.7105 53.6474 21.9709 47.7259 16.9847C41.2032 11.4923 37.631 17.3069 29.4978 17.0212C20.8631 16.7177 17.5343 14.5924 11.3596 21.0583Z" fill="#959595"/>
<path d="M18.9539 24.2637C14.2665 29.692 17.3869 30.5515 19.2648 37.0872C21.049 43.2971 21.1635 48.266 25.6039 51.8172C33.0264 57.7533 50.7492 55.7333 50.0707 44.3919C49.8005 39.8748 48.8749 38.5139 47.8257 34.3033C46.3484 28.3745 49.6813 21.862 45.6702 18.2936C41.2519 14.3629 38.3026 19.301 32.3994 19.6743C26.1323 20.0706 23.8367 18.6093 18.9539 24.2637Z" fill="#828181"/>
</svg>
