<svg width="74" height="52" viewBox="0 0 74 52" fill="none" xmlns="http://www.w3.org/2000/svg">
<path d="M16.6177 8.14642C6.62603 15.0764 -1.43401 22.2848 0.215104 33.9828C2.39915 49.4753 21.5169 50.7666 37.8445 51.5147C52.4842 52.1854 70.1999 54.0887 73.5442 40.4419C76.0436 30.2434 67.7579 24.6953 61.0011 16.451C55.075 9.22021 51.98 3.02534 42.6688 0.764591C32.3843 -1.73249 25.2073 2.18887 16.6177 8.14642Z" fill="#959595"/>
<path d="M28.8311 17.6837C21.8441 22.7252 16.2264 27.9462 17.5276 36.2728C19.2508 47.3003 32.7873 48.0316 44.3442 48.4031C54.7063 48.7362 67.2582 49.9179 69.4664 40.1519C71.1166 32.8535 65.1924 28.9789 60.3185 23.1661C56.0437 18.0679 53.7833 13.6805 47.1716 12.1605C39.8688 10.4816 34.8378 13.3495 28.8311 17.6837Z" fill="#828181"/>
</svg>
