<svg width="60" height="58" viewBox="0 0 60 58" fill="none" xmlns="http://www.w3.org/2000/svg">
<path d="M19.3059 11.7308C9.01131 15.9687 0.36939 25.754 4.11858 34.4121C7.65169 42.5712 18.5666 39.0823 28.5708 39.5919C38.373 40.0911 47.7537 44.8103 54.1248 37.1162C61.3359 28.4079 51.4428 19.912 42.6062 14.6655C35.2229 10.2819 28.295 8.03035 19.3059 11.7308Z" fill="#959595"/>
<path d="M23.8614 13.7541C16.0536 16.8954 9.68325 24.5959 12.8283 31.7462C15.7921 38.4844 24.1001 35.9704 31.8244 36.6803C39.3928 37.3759 46.7611 41.4901 51.4434 35.4227C56.7429 28.5556 48.8682 21.3556 41.9035 16.8288C36.0843 13.0465 30.6791 11.0111 23.8614 13.7541Z" fill="#828181"/>
</svg>
