<svg width="393" height="493" viewBox="0 0 393 493" fill="none" xmlns="http://www.w3.org/2000/svg">
<g filter="url(#filter0_f_393_5)">
<path d="M14.5312 92.5732H384.478L374.367 347.001C373.659 364.832 358.904 378.869 341.06 378.689L50.9771 375.757C33.0765 375.576 18.5844 361.156 18.3143 343.257L14.5312 92.5732Z" fill="#FAE7C9"/>
<path d="M384.478 92.5732C384.478 92.5732 297.683 172.06 287.723 172.06C277.763 172.06 111.998 172.06 104.884 172.06C87.0978 172.06 14.5312 92.5732 14.5312 92.5732M384.478 92.5732H14.5312M384.478 92.5732L374.367 347.001C373.659 364.832 358.904 378.869 341.06 378.689L50.9771 375.757C33.0765 375.576 18.5844 361.156 18.3143 343.257L14.5312 92.5732" stroke="#ECCCA2"/>
</g>
<g filter="url(#filter1_f_393_5)">
<path d="M94.4303 175.819C83.8673 169.731 27.9693 109.245 9.1725 88.75C6.80854 86.1724 8.70658 82.072 12.2038 82.1161L381.698 86.775C385.24 86.8197 387.01 91.0547 384.485 93.5389C363.504 114.18 300.014 175.819 290.031 175.819C278.04 175.819 107.171 183.161 94.4303 175.819Z" fill="#ECCCA2"/>
</g>
<path d="M27.0234 110.133H364.3L355.279 322.162C354.522 339.946 339.797 353.926 321.997 353.758L63.0797 351.314C45.184 351.145 30.6846 336.742 30.3955 318.848L27.0234 110.133Z" fill="#FAE7C9"/>
<path d="M311.989 162.948L311.916 162.603C311.896 162.51 311.934 162.408 312.017 162.334C312.204 162.168 312.502 162.225 312.547 162.435L312.777 163.524L312.922 164.204C312.991 164.529 313.163 164.821 313.42 165.047L316.37 167.64C316.936 168.138 317.832 168.249 318.642 167.923L331.032 162.926C332.029 162.524 332.629 161.571 332.442 160.688L331.424 155.886C331.379 155.675 331.156 155.547 330.905 155.589C330.714 155.62 330.532 155.553 330.44 155.417L329.658 154.264C329.453 153.964 329.782 153.546 330.194 153.583C330.354 153.597 330.484 153.681 330.544 153.807L333.584 160.289C334.015 161.207 333.456 162.354 332.343 162.834L317.973 169.033C316.962 169.469 315.831 169.206 315.342 168.42L312.087 163.191C312.04 163.116 312.007 163.034 311.989 162.948Z" fill="#C5BF9B" stroke="#C5BF9B" stroke-width="6"/>
<path d="M72.0972 160.508L72.1702 160.164C72.19 160.07 72.1517 159.969 72.0689 159.895C71.8822 159.728 71.584 159.785 71.5393 159.996L71.3085 161.085L71.1643 161.764C71.0952 162.09 70.9229 162.382 70.6658 162.608L67.7161 165.201C67.1498 165.699 66.2542 165.81 65.4439 165.483L53.054 160.487C52.0566 160.085 51.4567 159.132 51.6441 158.249L52.6623 153.446C52.707 153.236 52.9303 153.108 53.1811 153.149C53.3724 153.181 53.5538 153.114 53.6463 152.978L54.4284 151.825C54.6325 151.524 54.3038 151.107 53.8915 151.143C53.7324 151.157 53.6015 151.241 53.5424 151.367L50.5016 157.849C50.0708 158.768 50.6301 159.914 51.7433 160.395L66.113 166.594C67.124 167.03 68.2551 166.766 68.744 165.981L71.9992 160.752C72.0459 160.677 72.0789 160.595 72.0972 160.508Z" fill="#C5BF9B" stroke="#C5BF9B" stroke-width="6"/>
<path d="M117.827 234.536C113.288 230.267 106.152 179.042 106.152 179.042H275.439C275.439 179.042 267.007 227.218 261.818 234.536C256.629 241.853 122.367 238.804 117.827 234.536Z" fill="#7597AD" stroke="#ECCCA2" stroke-width="3"/>
<path d="M314.652 179.93L339.245 166.717C343.243 164.569 348.085 167.465 348.085 172.002V216.726C348.085 219.038 346.757 221.144 344.671 222.14L316.593 235.549C312.427 237.538 307.669 234.274 308.026 229.671L311.509 184.751C311.667 182.714 312.852 180.897 314.652 179.93Z" fill="#7597AD" stroke="#B29773" stroke-width="4"/>
<path d="M73.4283 179.93L48.8347 166.717C44.8375 164.569 39.9951 167.465 39.9951 172.002V216.726C39.9951 219.038 41.3233 221.144 43.4095 222.14L71.4868 235.549C75.6531 237.538 80.4115 234.274 80.0545 229.671L76.5707 184.751C76.4127 182.714 75.2286 180.897 73.4283 179.93Z" fill="#7597AD" stroke="#B29773" stroke-width="4"/>
<g filter="url(#filter2_f_393_5)">
<ellipse cx="11.8776" cy="20.1554" rx="11.8776" ry="20.1554" transform="matrix(0.989354 -0.145531 0.164151 0.986435 116.523 188.529)" fill="#D4EBF9"/>
</g>
<g filter="url(#filter3_f_393_5)">
<ellipse cx="8.12087" cy="17.6396" rx="8.12087" ry="17.6396" transform="matrix(0.999862 -0.0166174 0.0187982 0.999823 43.8867 179.312)" fill="#D4EBF9"/>
</g>
<g filter="url(#filter4_f_393_5)">
<ellipse cx="8.12087" cy="17.6396" rx="8.12087" ry="17.6396" transform="matrix(-0.999862 -0.0166174 -0.0187982 0.999823 344.232 181.752)" fill="#D4EBF9"/>
</g>
<rect x="171.014" y="271.734" width="40.2137" height="50.6146" rx="6" fill="#C8AC88"/>
<rect x="88.6406" y="238.804" width="204.312" height="32.93" rx="16" fill="#ECCCA2"/>
<line x1="178.148" y1="245.012" x2="215.119" y2="245.012" stroke="#FFF3DE"/>
<line x1="178.148" y1="266.966" x2="215.119" y2="266.966" stroke="#FFF3DE"/>
<line x1="178.148" y1="259.648" x2="215.119" y2="259.648" stroke="#FFF3DE"/>
<line x1="178.148" y1="252.33" x2="215.119" y2="252.33" stroke="#FFF3DE"/>
<rect width="23.8329" height="77.3611" rx="7" transform="matrix(0.40179 -0.915732 0.932332 0.361602 281.426 320.525)" fill="#ECCCA2"/>
<rect width="23.8329" height="75.2859" rx="7" transform="matrix(-0.40179 -0.915732 -0.932332 0.361602 103.553 320.525)" fill="#ECCCA2"/>
<path d="M183.598 255.92C183.598 272.25 169.133 285.488 151.288 285.488C133.444 285.488 118.979 272.25 118.979 255.92C118.979 239.591 133.444 226.353 151.288 226.353C169.133 226.353 183.598 239.591 183.598 255.92ZM126.186 255.92C126.186 268.607 137.425 278.892 151.288 278.892C165.152 278.892 176.391 268.607 176.391 255.92C176.391 243.233 165.152 232.949 151.288 232.949C137.425 232.949 126.186 243.233 126.186 255.92Z" fill="#505050"/>
<path d="M161.492 252.641C157.727 250.999 142.379 249.685 139.483 252.641C136.587 255.597 135.429 261.181 135.139 264.137C134.85 267.093 144.117 278.918 144.117 278.918H157.727C157.727 278.918 166.994 268.079 166.994 264.137C166.994 260.196 165.256 254.284 161.492 252.641Z" fill="#505050"/>
<path d="M162.55 252.912L172.013 247.784C172.865 247.323 173.935 247.539 174.55 248.296L179.68 254.613C180.565 255.704 180.088 257.324 178.756 257.748L165.928 261.836C164.875 262.172 163.738 261.594 163.388 260.547L161.623 255.269C161.318 254.358 161.707 253.368 162.55 252.912Z" stroke="#505050" stroke-width="6"/>
<path d="M140.185 252.912L130.722 247.784C129.87 247.323 128.8 247.539 128.184 248.296L123.055 254.613C122.169 255.704 122.646 257.324 123.979 257.748L136.807 261.836C137.859 262.172 138.996 261.594 139.347 260.547L141.112 255.269C141.417 254.358 141.027 253.368 140.185 252.912Z" stroke="#505050" stroke-width="6"/>
<ellipse cx="151.064" cy="258.768" rx="5.60935" ry="0.876083" fill="#D9D9D9"/>
<path d="M289.546 312.385C294.228 327.472 289.546 352.113 289.546 354.125H203.302C203.302 354.125 200.217 337.091 203.302 327.472C206.185 318.485 209.983 310.392 216.18 304.842C223.782 298.034 224.375 298.807 238.814 298.807H275.107C285.254 298.807 284.863 297.299 289.546 312.385Z" fill="#C2AD92"/>
<rect width="2.89342" height="5.03268" transform="matrix(-1 0 0 1 269.928 293.733)" fill="#A7A7A7"/>
<rect width="2.89342" height="5.03268" transform="matrix(-1 0 0 1 239.547 293.733)" fill="#A7A7A7"/>
<path d="M280.536 276.622C281.585 283.214 281.921 290.925 280.536 293.733C279.151 296.541 261.695 294.629 249.674 293.733C241.728 293.14 234.872 296.729 229.419 291.216C223.698 285.432 224.688 278.032 227.008 270.079C229.004 263.235 232.048 259.656 237.617 255.484C243.186 251.313 267.516 250.955 272.338 255.484C277.16 260.014 279.138 267.837 280.536 276.622Z" fill="#C2AD92"/>
<path d="M188.202 292.773C188.202 291.248 193.391 288.809 193.391 288.809L195.661 289.724C195.661 289.724 190.796 292.468 190.796 293.687C190.796 294.907 194.688 298.566 194.688 299.786C194.688 301.005 189.499 308.628 189.499 310.152C189.499 311.677 192.093 318.995 192.093 318.995L193.391 322.654H189.499L188.202 318.995C187.098 315.597 185.932 311.372 185.932 310.152C185.931 308.933 190.796 301.31 190.796 299.786C190.796 298.261 188.202 294.297 188.202 292.773Z" fill="#858585"/>
<ellipse cx="195.985" cy="288.504" rx="3.56735" ry="3.35398" fill="#606060"/>
<path d="M100.846 178.323C91.4066 173.435 42.4935 125.985 24.0489 107.934C21.4776 105.418 23.3046 101.084 26.902 101.125L362.717 104.93C366.365 104.971 368.048 109.455 365.312 111.868C344.698 130.055 289.145 178.323 280.22 178.323C269.224 178.323 112.529 184.374 100.846 178.323Z" fill="#ECCCA2"/>
<g opacity="0.78" filter="url(#filter5_f_393_5)">
<mask id="path-33-inside-1_393_5" fill="white">
<path d="M183.62 255.568C183.62 271.898 169.154 285.136 151.31 285.136C133.466 285.136 119 271.898 119 255.568C119 239.238 133.466 226 151.31 226C169.154 226 183.62 239.238 183.62 255.568ZM126.208 255.568C126.208 268.255 137.446 278.54 151.31 278.54C165.173 278.54 176.412 268.255 176.412 255.568C176.412 242.881 165.173 232.596 151.31 232.596C137.446 232.596 126.208 242.881 126.208 255.568Z"/>
</mask>
<path d="M183.62 255.568C183.62 271.898 169.154 285.136 151.31 285.136C133.466 285.136 119 271.898 119 255.568C119 239.238 133.466 226 151.31 226C169.154 226 183.62 239.238 183.62 255.568ZM126.208 255.568C126.208 268.255 137.446 278.54 151.31 278.54C165.173 278.54 176.412 268.255 176.412 255.568C176.412 242.881 165.173 232.596 151.31 232.596C137.446 232.596 126.208 242.881 126.208 255.568Z" fill="#FFEE97" stroke="#FFEE97" stroke-width="2" mask="url(#path-33-inside-1_393_5)"/>
<path d="M161.513 252.289C157.749 250.646 142.401 249.332 139.505 252.289C136.609 255.245 135.451 260.828 135.161 263.784C134.871 266.741 144.138 278.565 144.138 278.565H157.749C157.749 278.565 167.016 267.726 167.015 263.784C167.015 259.843 165.278 253.931 161.513 252.289Z" fill="#FFEE97" stroke="#FFEE97"/>
<path d="M162.571 252.559L172.034 247.431C172.886 246.97 173.956 247.186 174.571 247.943L179.701 254.26C180.587 255.351 180.109 256.971 178.777 257.395L165.949 261.483C164.897 261.819 163.759 261.242 163.409 260.194L161.644 254.917C161.339 254.005 161.729 253.016 162.571 252.559Z" stroke="#FFEE97" stroke-width="6"/>
<path d="M140.206 252.559L130.743 247.431C129.891 246.97 128.821 247.186 128.206 247.943L123.076 254.26C122.19 255.351 122.668 256.971 124 257.395L136.828 261.483C137.881 261.819 139.018 261.242 139.368 260.194L141.133 254.917C141.438 254.005 141.049 253.016 140.206 252.559Z" stroke="#FFEE97" stroke-width="6"/>
<mask id="path-37-inside-2_393_5" fill="white">
<ellipse cx="151.086" cy="258.415" rx="5.60935" ry="0.876083"/>
</mask>
<ellipse cx="151.086" cy="258.415" rx="5.60935" ry="0.876083" fill="#FFEE97"/>
<path d="M156.695 258.415H155.695C155.695 258.011 155.956 257.811 155.975 257.797C156.014 257.766 156.01 257.78 155.908 257.818C155.716 257.889 155.381 257.971 154.898 258.047C153.948 258.195 152.6 258.291 151.086 258.291V259.291V260.291C152.67 260.291 154.126 260.191 155.207 260.023C155.739 259.939 156.225 259.833 156.601 259.694C156.783 259.627 156.999 259.531 157.188 259.387C157.356 259.258 157.695 258.941 157.695 258.415H156.695ZM151.086 259.291V258.291C149.572 258.291 148.224 258.195 147.274 258.047C146.791 257.971 146.456 257.889 146.264 257.818C146.162 257.78 146.158 257.766 146.197 257.797C146.216 257.811 146.477 258.011 146.477 258.415H145.477H144.477C144.477 258.941 144.816 259.258 144.984 259.387C145.173 259.531 145.389 259.627 145.571 259.694C145.947 259.833 146.433 259.939 146.965 260.023C148.045 260.191 149.502 260.291 151.086 260.291V259.291ZM145.477 258.415H146.477C146.477 258.82 146.216 259.019 146.197 259.033C146.158 259.064 146.162 259.05 146.264 259.012C146.456 258.941 146.791 258.859 147.274 258.784C148.224 258.635 149.572 258.539 151.086 258.539V257.539V256.539C149.502 256.539 148.045 256.639 146.965 256.808C146.433 256.891 145.947 256.997 145.571 257.136C145.389 257.203 145.173 257.299 144.984 257.444C144.816 257.572 144.477 257.89 144.477 258.415H145.477ZM151.086 257.539V258.539C152.6 258.539 153.948 258.635 154.898 258.784C155.381 258.859 155.716 258.941 155.908 259.012C156.01 259.05 156.014 259.064 155.975 259.033C155.956 259.019 155.695 258.82 155.695 258.415H156.695H157.695C157.695 257.89 157.356 257.572 157.188 257.444C156.999 257.299 156.783 257.203 156.601 257.136C156.225 256.997 155.739 256.891 155.207 256.808C154.126 256.639 152.67 256.539 151.086 256.539V257.539Z" fill="#FFEE97" mask="url(#path-37-inside-2_393_5)"/>
</g>
<path d="M76.5538 11.58C77.7671 11.58 78.7271 11.7533 79.4338 12.1C80.1538 12.4467 80.6738 13 80.9938 13.76C81.3138 14.52 81.4738 15.5333 81.4738 16.8C81.4738 18.5067 81.0538 19.84 80.2138 20.8C79.3738 21.7467 78.2804 22.4467 76.9338 22.9L76.0938 23.18C76.0671 23.1933 76.0204 23.2 75.9538 23.2C75.8604 23.2 75.7738 23.1667 75.6938 23.1C75.6271 23.0333 75.5938 22.94 75.5938 22.82V21.94C75.5938 21.8333 75.6338 21.7333 75.7138 21.64C75.7938 21.5333 75.9004 21.4533 76.0338 21.4L76.8138 21.1C77.7338 20.7533 78.4404 20.2533 78.9338 19.6C79.4271 18.9467 79.6738 17.9867 79.6738 16.72C79.6738 15.8267 79.5671 15.1267 79.3538 14.62C79.1404 14.1 78.7871 13.7267 78.2938 13.5C77.8138 13.2733 77.1471 13.16 76.2938 13.16H75.6738H75.6138L73.7738 13.14C73.6404 13.14 73.5271 13.1 73.4338 13.02C73.3538 12.94 73.3138 12.8333 73.3138 12.7V9.26C73.3138 9.12667 73.3538 9.02 73.4338 8.94C73.5271 8.84667 73.6404 8.8 73.7738 8.8H74.5738C74.7071 8.8 74.8138 8.84667 74.8938 8.94C74.9738 9.02 75.0138 9.12667 75.0138 9.26V11.58H76.1538H76.5538ZM87.0225 11.58C88.2358 11.58 89.1958 11.7533 89.9025 12.1C90.6225 12.4467 91.1425 13 91.4625 13.76C91.7825 14.52 91.9425 15.5333 91.9425 16.8C91.9425 18.5067 91.5225 19.84 90.6825 20.8C89.8425 21.7467 88.7492 22.4467 87.4025 22.9L86.5625 23.18C86.5358 23.1933 86.4892 23.2 86.4225 23.2C86.3292 23.2 86.2425 23.1667 86.1625 23.1C86.0958 23.0333 86.0625 22.94 86.0625 22.82V21.94C86.0625 21.8333 86.1025 21.7333 86.1825 21.64C86.2625 21.5333 86.3692 21.4533 86.5025 21.4L87.2825 21.1C88.2025 20.7533 88.9092 20.2533 89.4025 19.6C89.8958 18.9467 90.1425 17.9867 90.1425 16.72C90.1425 15.8267 90.0358 15.1267 89.8225 14.62C89.6092 14.1 89.2558 13.7267 88.7625 13.5C88.2825 13.2733 87.6158 13.16 86.7625 13.16H86.1425H86.0825L84.2425 13.14C84.1092 13.14 83.9958 13.1 83.9025 13.02C83.8225 12.94 83.7825 12.8333 83.7825 12.7V9.26C83.7825 9.12667 83.8225 9.02 83.9025 8.94C83.9958 8.84667 84.1092 8.8 84.2425 8.8H85.0425C85.1758 8.8 85.2825 8.84667 85.3625 8.94C85.4425 9.02 85.4825 9.12667 85.4825 9.26V11.58H86.6225H87.0225ZM99.7313 11.58C100.558 11.58 101.291 11.78 101.931 12.18C102.585 12.5667 103.091 13.1267 103.451 13.86C103.825 14.5933 104.011 15.46 104.011 16.46V22.54C104.011 22.6733 103.965 22.7867 103.871 22.88C103.791 22.96 103.685 23 103.551 23H98.3913C98.2579 23 98.1446 22.96 98.0513 22.88C97.9713 22.7867 97.9313 22.6733 97.9313 22.54V21.9C97.9313 21.7667 97.9713 21.66 98.0513 21.58C98.1446 21.4867 98.2579 21.44 98.3913 21.44H102.251V16.58C102.251 15.5667 101.991 14.7467 101.471 14.12C100.965 13.48 100.318 13.16 99.5313 13.16H97.4313L95.8713 22.52C95.8579 22.6533 95.8046 22.7667 95.7113 22.86C95.6179 22.9533 95.5046 23 95.3713 23H94.5313C94.3979 23 94.2913 22.9533 94.2113 22.86C94.1446 22.7667 94.1179 22.6533 94.1313 22.52L95.7313 13.16H94.7113C94.5779 13.16 94.4646 13.12 94.3713 13.04C94.2913 12.9467 94.2513 12.8333 94.2513 12.7V12.04C94.2513 11.9067 94.2913 11.8 94.3713 11.72C94.4646 11.6267 94.5779 11.58 94.7113 11.58H99.7313ZM114.327 11.58C115.541 11.58 116.501 11.7533 117.207 12.1C117.927 12.4467 118.447 13 118.767 13.76C119.087 14.52 119.247 15.5333 119.247 16.8C119.247 18.5067 118.827 19.84 117.987 20.8C117.147 21.7467 116.054 22.4467 114.707 22.9L113.867 23.18C113.841 23.1933 113.794 23.2 113.727 23.2C113.634 23.2 113.547 23.1667 113.467 23.1C113.401 23.0333 113.367 22.94 113.367 22.82V21.94C113.367 21.8333 113.407 21.7333 113.487 21.64C113.567 21.5333 113.674 21.4533 113.807 21.4L114.587 21.1C115.507 20.7533 116.214 20.2533 116.707 19.6C117.201 18.9467 117.447 17.9867 117.447 16.72C117.447 15.8267 117.341 15.1267 117.127 14.62C116.914 14.1 116.561 13.7267 116.067 13.5C115.587 13.2733 114.921 13.16 114.067 13.16H113.447H113.387L111.547 13.14C111.414 13.14 111.301 13.1 111.207 13.02C111.127 12.94 111.087 12.8333 111.087 12.7V9.26C111.087 9.12667 111.127 9.02 111.207 8.94C111.301 8.84667 111.414 8.8 111.547 8.8H112.347C112.481 8.8 112.587 8.84667 112.667 8.94C112.747 9.02 112.787 9.12667 112.787 9.26V11.58H113.927H114.327ZM124.796 11.58C126.009 11.58 126.969 11.7533 127.676 12.1C128.396 12.4467 128.916 13 129.236 13.76C129.556 14.52 129.716 15.5333 129.716 16.8C129.716 18.5067 129.296 19.84 128.456 20.8C127.616 21.7467 126.523 22.4467 125.176 22.9L124.336 23.18C124.309 23.1933 124.263 23.2 124.196 23.2C124.103 23.2 124.016 23.1667 123.936 23.1C123.869 23.0333 123.836 22.94 123.836 22.82V21.94C123.836 21.8333 123.876 21.7333 123.956 21.64C124.036 21.5333 124.143 21.4533 124.276 21.4L125.056 21.1C125.976 20.7533 126.683 20.2533 127.176 19.6C127.669 18.9467 127.916 17.9867 127.916 16.72C127.916 15.8267 127.809 15.1267 127.596 14.62C127.383 14.1 127.029 13.7267 126.536 13.5C126.056 13.2733 125.389 13.16 124.536 13.16H123.916H123.856L122.016 13.14C121.883 13.14 121.769 13.1 121.676 13.02C121.596 12.94 121.556 12.8333 121.556 12.7V9.26C121.556 9.12667 121.596 9.02 121.676 8.94C121.769 8.84667 121.883 8.8 122.016 8.8H122.816C122.949 8.8 123.056 8.84667 123.136 8.94C123.216 9.02 123.256 9.12667 123.256 9.26V11.58H124.396H124.796ZM137.505 11.58C138.331 11.58 139.065 11.78 139.705 12.18C140.358 12.5667 140.865 13.1267 141.225 13.86C141.598 14.5933 141.785 15.46 141.785 16.46V22.54C141.785 22.6733 141.738 22.7867 141.645 22.88C141.565 22.96 141.458 23 141.325 23H136.165C136.031 23 135.918 22.96 135.825 22.88C135.745 22.7867 135.705 22.6733 135.705 22.54V21.9C135.705 21.7667 135.745 21.66 135.825 21.58C135.918 21.4867 136.031 21.44 136.165 21.44H140.025V16.58C140.025 15.5667 139.765 14.7467 139.245 14.12C138.738 13.48 138.091 13.16 137.305 13.16H135.205L133.645 22.52C133.631 22.6533 133.578 22.7667 133.485 22.86C133.391 22.9533 133.278 23 133.145 23H132.305C132.171 23 132.065 22.9533 131.985 22.86C131.918 22.7667 131.891 22.6533 131.905 22.52L133.505 13.16H132.485C132.351 13.16 132.238 13.12 132.145 13.04C132.065 12.9467 132.025 12.8333 132.025 12.7V12.04C132.025 11.9067 132.065 11.8 132.145 11.72C132.238 11.6267 132.351 11.58 132.485 11.58H137.505ZM152.101 11.58C153.314 11.58 154.274 11.7533 154.981 12.1C155.701 12.4467 156.221 13 156.541 13.76C156.861 14.52 157.021 15.5333 157.021 16.8C157.021 18.5067 156.601 19.84 155.761 20.8C154.921 21.7467 153.827 22.4467 152.481 22.9L151.641 23.18C151.614 23.1933 151.567 23.2 151.501 23.2C151.407 23.2 151.321 23.1667 151.241 23.1C151.174 23.0333 151.141 22.94 151.141 22.82V21.94C151.141 21.8333 151.181 21.7333 151.261 21.64C151.341 21.5333 151.447 21.4533 151.581 21.4L152.361 21.1C153.281 20.7533 153.987 20.2533 154.481 19.6C154.974 18.9467 155.221 17.9867 155.221 16.72C155.221 15.8267 155.114 15.1267 154.901 14.62C154.687 14.1 154.334 13.7267 153.841 13.5C153.361 13.2733 152.694 13.16 151.841 13.16H151.221H151.161L149.321 13.14C149.187 13.14 149.074 13.1 148.981 13.02C148.901 12.94 148.861 12.8333 148.861 12.7V9.26C148.861 9.12667 148.901 9.02 148.981 8.94C149.074 8.84667 149.187 8.8 149.321 8.8H150.121C150.254 8.8 150.361 8.84667 150.441 8.94C150.521 9.02 150.561 9.12667 150.561 9.26V11.58H151.701H152.101ZM162.569 11.58C163.783 11.58 164.743 11.7533 165.449 12.1C166.169 12.4467 166.689 13 167.009 13.76C167.329 14.52 167.489 15.5333 167.489 16.8C167.489 18.5067 167.069 19.84 166.229 20.8C165.389 21.7467 164.296 22.4467 162.949 22.9L162.109 23.18C162.083 23.1933 162.036 23.2 161.969 23.2C161.876 23.2 161.789 23.1667 161.709 23.1C161.643 23.0333 161.609 22.94 161.609 22.82V21.94C161.609 21.8333 161.649 21.7333 161.729 21.64C161.809 21.5333 161.916 21.4533 162.049 21.4L162.829 21.1C163.749 20.7533 164.456 20.2533 164.949 19.6C165.443 18.9467 165.689 17.9867 165.689 16.72C165.689 15.8267 165.583 15.1267 165.369 14.62C165.156 14.1 164.803 13.7267 164.309 13.5C163.829 13.2733 163.163 13.16 162.309 13.16H161.689H161.629L159.789 13.14C159.656 13.14 159.543 13.1 159.449 13.02C159.369 12.94 159.329 12.8333 159.329 12.7V9.26C159.329 9.12667 159.369 9.02 159.449 8.94C159.543 8.84667 159.656 8.8 159.789 8.8H160.589C160.723 8.8 160.829 8.84667 160.909 8.94C160.989 9.02 161.029 9.12667 161.029 9.26V11.58H162.169H162.569ZM175.278 11.58C176.105 11.58 176.838 11.78 177.478 12.18C178.131 12.5667 178.638 13.1267 178.998 13.86C179.371 14.5933 179.558 15.46 179.558 16.46V22.54C179.558 22.6733 179.511 22.7867 179.418 22.88C179.338 22.96 179.231 23 179.098 23H173.938C173.805 23 173.691 22.96 173.598 22.88C173.518 22.7867 173.478 22.6733 173.478 22.54V21.9C173.478 21.7667 173.518 21.66 173.598 21.58C173.691 21.4867 173.805 21.44 173.938 21.44H177.798V16.58C177.798 15.5667 177.538 14.7467 177.018 14.12C176.511 13.48 175.865 13.16 175.078 13.16H172.978L171.418 22.52C171.405 22.6533 171.351 22.7667 171.258 22.86C171.165 22.9533 171.051 23 170.918 23H170.078C169.945 23 169.838 22.9533 169.758 22.86C169.691 22.7667 169.665 22.6533 169.678 22.52L171.278 13.16H170.258C170.125 13.16 170.011 13.12 169.918 13.04C169.838 12.9467 169.798 12.8333 169.798 12.7V12.04C169.798 11.9067 169.838 11.8 169.918 11.72C170.011 11.6267 170.125 11.58 170.258 11.58H175.278ZM76.5538 35.58C77.7671 35.58 78.7271 35.7533 79.4338 36.1C80.1538 36.4467 80.6738 37 80.9938 37.76C81.3138 38.52 81.4738 39.5333 81.4738 40.8C81.4738 42.5067 81.0538 43.84 80.2138 44.8C79.3738 45.7467 78.2804 46.4467 76.9338 46.9L76.0938 47.18C76.0671 47.1933 76.0204 47.2 75.9538 47.2C75.8604 47.2 75.7738 47.1667 75.6938 47.1C75.6271 47.0333 75.5938 46.94 75.5938 46.82V45.94C75.5938 45.8333 75.6338 45.7333 75.7138 45.64C75.7938 45.5333 75.9004 45.4533 76.0338 45.4L76.8138 45.1C77.7338 44.7533 78.4404 44.2533 78.9338 43.6C79.4271 42.9467 79.6738 41.9867 79.6738 40.72C79.6738 39.8267 79.5671 39.1267 79.3538 38.62C79.1404 38.1 78.7871 37.7267 78.2938 37.5C77.8138 37.2733 77.1471 37.16 76.2938 37.16H75.6738H75.6138L73.7738 37.14C73.6404 37.14 73.5271 37.1 73.4338 37.02C73.3538 36.94 73.3138 36.8333 73.3138 36.7V33.26C73.3138 33.1267 73.3538 33.02 73.4338 32.94C73.5271 32.8467 73.6404 32.8 73.7738 32.8H74.5738C74.7071 32.8 74.8138 32.8467 74.8938 32.94C74.9738 33.02 75.0138 33.1267 75.0138 33.26V35.58H76.1538H76.5538ZM87.0225 35.58C88.2358 35.58 89.1958 35.7533 89.9025 36.1C90.6225 36.4467 91.1425 37 91.4625 37.76C91.7825 38.52 91.9425 39.5333 91.9425 40.8C91.9425 42.5067 91.5225 43.84 90.6825 44.8C89.8425 45.7467 88.7492 46.4467 87.4025 46.9L86.5625 47.18C86.5358 47.1933 86.4892 47.2 86.4225 47.2C86.3292 47.2 86.2425 47.1667 86.1625 47.1C86.0958 47.0333 86.0625 46.94 86.0625 46.82V45.94C86.0625 45.8333 86.1025 45.7333 86.1825 45.64C86.2625 45.5333 86.3692 45.4533 86.5025 45.4L87.2825 45.1C88.2025 44.7533 88.9092 44.2533 89.4025 43.6C89.8958 42.9467 90.1425 41.9867 90.1425 40.72C90.1425 39.8267 90.0358 39.1267 89.8225 38.62C89.6092 38.1 89.2558 37.7267 88.7625 37.5C88.2825 37.2733 87.6158 37.16 86.7625 37.16H86.1425H86.0825L84.2425 37.14C84.1092 37.14 83.9958 37.1 83.9025 37.02C83.8225 36.94 83.7825 36.8333 83.7825 36.7V33.26C83.7825 33.1267 83.8225 33.02 83.9025 32.94C83.9958 32.8467 84.1092 32.8 84.2425 32.8H85.0425C85.1758 32.8 85.2825 32.8467 85.3625 32.94C85.4425 33.02 85.4825 33.1267 85.4825 33.26V35.58H86.6225H87.0225ZM99.7313 35.58C100.558 35.58 101.291 35.78 101.931 36.18C102.585 36.5667 103.091 37.1267 103.451 37.86C103.825 38.5933 104.011 39.46 104.011 40.46V46.54C104.011 46.6733 103.965 46.7867 103.871 46.88C103.791 46.96 103.685 47 103.551 47H98.3913C98.2579 47 98.1446 46.96 98.0513 46.88C97.9713 46.7867 97.9313 46.6733 97.9313 46.54V45.9C97.9313 45.7667 97.9713 45.66 98.0513 45.58C98.1446 45.4867 98.2579 45.44 98.3913 45.44H102.251V40.58C102.251 39.5667 101.991 38.7467 101.471 38.12C100.965 37.48 100.318 37.16 99.5313 37.16H97.4313L95.8713 46.52C95.8579 46.6533 95.8046 46.7667 95.7113 46.86C95.6179 46.9533 95.5046 47 95.3713 47H94.5313C94.3979 47 94.2913 46.9533 94.2113 46.86C94.1446 46.7667 94.1179 46.6533 94.1313 46.52L95.7313 37.16H94.7113C94.5779 37.16 94.4646 37.12 94.3713 37.04C94.2913 36.9467 94.2513 36.8333 94.2513 36.7V36.04C94.2513 35.9067 94.2913 35.8 94.3713 35.72C94.4646 35.6267 94.5779 35.58 94.7113 35.58H99.7313ZM114.327 35.58C115.541 35.58 116.501 35.7533 117.207 36.1C117.927 36.4467 118.447 37 118.767 37.76C119.087 38.52 119.247 39.5333 119.247 40.8C119.247 42.5067 118.827 43.84 117.987 44.8C117.147 45.7467 116.054 46.4467 114.707 46.9L113.867 47.18C113.841 47.1933 113.794 47.2 113.727 47.2C113.634 47.2 113.547 47.1667 113.467 47.1C113.401 47.0333 113.367 46.94 113.367 46.82V45.94C113.367 45.8333 113.407 45.7333 113.487 45.64C113.567 45.5333 113.674 45.4533 113.807 45.4L114.587 45.1C115.507 44.7533 116.214 44.2533 116.707 43.6C117.201 42.9467 117.447 41.9867 117.447 40.72C117.447 39.8267 117.341 39.1267 117.127 38.62C116.914 38.1 116.561 37.7267 116.067 37.5C115.587 37.2733 114.921 37.16 114.067 37.16H113.447H113.387L111.547 37.14C111.414 37.14 111.301 37.1 111.207 37.02C111.127 36.94 111.087 36.8333 111.087 36.7V33.26C111.087 33.1267 111.127 33.02 111.207 32.94C111.301 32.8467 111.414 32.8 111.547 32.8H112.347C112.481 32.8 112.587 32.8467 112.667 32.94C112.747 33.02 112.787 33.1267 112.787 33.26V35.58H113.927H114.327ZM124.796 35.58C126.009 35.58 126.969 35.7533 127.676 36.1C128.396 36.4467 128.916 37 129.236 37.76C129.556 38.52 129.716 39.5333 129.716 40.8C129.716 42.5067 129.296 43.84 128.456 44.8C127.616 45.7467 126.523 46.4467 125.176 46.9L124.336 47.18C124.309 47.1933 124.263 47.2 124.196 47.2C124.103 47.2 124.016 47.1667 123.936 47.1C123.869 47.0333 123.836 46.94 123.836 46.82V45.94C123.836 45.8333 123.876 45.7333 123.956 45.64C124.036 45.5333 124.143 45.4533 124.276 45.4L125.056 45.1C125.976 44.7533 126.683 44.2533 127.176 43.6C127.669 42.9467 127.916 41.9867 127.916 40.72C127.916 39.8267 127.809 39.1267 127.596 38.62C127.383 38.1 127.029 37.7267 126.536 37.5C126.056 37.2733 125.389 37.16 124.536 37.16H123.916H123.856L122.016 37.14C121.883 37.14 121.769 37.1 121.676 37.02C121.596 36.94 121.556 36.8333 121.556 36.7V33.26C121.556 33.1267 121.596 33.02 121.676 32.94C121.769 32.8467 121.883 32.8 122.016 32.8H122.816C122.949 32.8 123.056 32.8467 123.136 32.94C123.216 33.02 123.256 33.1267 123.256 33.26V35.58H124.396H124.796ZM137.505 35.58C138.331 35.58 139.065 35.78 139.705 36.18C140.358 36.5667 140.865 37.1267 141.225 37.86C141.598 38.5933 141.785 39.46 141.785 40.46V46.54C141.785 46.6733 141.738 46.7867 141.645 46.88C141.565 46.96 141.458 47 141.325 47H136.165C136.031 47 135.918 46.96 135.825 46.88C135.745 46.7867 135.705 46.6733 135.705 46.54V45.9C135.705 45.7667 135.745 45.66 135.825 45.58C135.918 45.4867 136.031 45.44 136.165 45.44H140.025V40.58C140.025 39.5667 139.765 38.7467 139.245 38.12C138.738 37.48 138.091 37.16 137.305 37.16H135.205L133.645 46.52C133.631 46.6533 133.578 46.7667 133.485 46.86C133.391 46.9533 133.278 47 133.145 47H132.305C132.171 47 132.065 46.9533 131.985 46.86C131.918 46.7667 131.891 46.6533 131.905 46.52L133.505 37.16H132.485C132.351 37.16 132.238 37.12 132.145 37.04C132.065 36.9467 132.025 36.8333 132.025 36.7V36.04C132.025 35.9067 132.065 35.8 132.145 35.72C132.238 35.6267 132.351 35.58 132.485 35.58H137.505ZM152.101 35.58C153.314 35.58 154.274 35.7533 154.981 36.1C155.701 36.4467 156.221 37 156.541 37.76C156.861 38.52 157.021 39.5333 157.021 40.8C157.021 42.5067 156.601 43.84 155.761 44.8C154.921 45.7467 153.827 46.4467 152.481 46.9L151.641 47.18C151.614 47.1933 151.567 47.2 151.501 47.2C151.407 47.2 151.321 47.1667 151.241 47.1C151.174 47.0333 151.141 46.94 151.141 46.82V45.94C151.141 45.8333 151.181 45.7333 151.261 45.64C151.341 45.5333 151.447 45.4533 151.581 45.4L152.361 45.1C153.281 44.7533 153.987 44.2533 154.481 43.6C154.974 42.9467 155.221 41.9867 155.221 40.72C155.221 39.8267 155.114 39.1267 154.901 38.62C154.687 38.1 154.334 37.7267 153.841 37.5C153.361 37.2733 152.694 37.16 151.841 37.16H151.221H151.161L149.321 37.14C149.187 37.14 149.074 37.1 148.981 37.02C148.901 36.94 148.861 36.8333 148.861 36.7V33.26C148.861 33.1267 148.901 33.02 148.981 32.94C149.074 32.8467 149.187 32.8 149.321 32.8H150.121C150.254 32.8 150.361 32.8467 150.441 32.94C150.521 33.02 150.561 33.1267 150.561 33.26V35.58H151.701H152.101ZM162.569 35.58C163.783 35.58 164.743 35.7533 165.449 36.1C166.169 36.4467 166.689 37 167.009 37.76C167.329 38.52 167.489 39.5333 167.489 40.8C167.489 42.5067 167.069 43.84 166.229 44.8C165.389 45.7467 164.296 46.4467 162.949 46.9L162.109 47.18C162.083 47.1933 162.036 47.2 161.969 47.2C161.876 47.2 161.789 47.1667 161.709 47.1C161.643 47.0333 161.609 46.94 161.609 46.82V45.94C161.609 45.8333 161.649 45.7333 161.729 45.64C161.809 45.5333 161.916 45.4533 162.049 45.4L162.829 45.1C163.749 44.7533 164.456 44.2533 164.949 43.6C165.443 42.9467 165.689 41.9867 165.689 40.72C165.689 39.8267 165.583 39.1267 165.369 38.62C165.156 38.1 164.803 37.7267 164.309 37.5C163.829 37.2733 163.163 37.16 162.309 37.16H161.689H161.629L159.789 37.14C159.656 37.14 159.543 37.1 159.449 37.02C159.369 36.94 159.329 36.8333 159.329 36.7V33.26C159.329 33.1267 159.369 33.02 159.449 32.94C159.543 32.8467 159.656 32.8 159.789 32.8H160.589C160.723 32.8 160.829 32.8467 160.909 32.94C160.989 33.02 161.029 33.1267 161.029 33.26V35.58H162.169H162.569ZM175.278 35.58C176.105 35.58 176.838 35.78 177.478 36.18C178.131 36.5667 178.638 37.1267 178.998 37.86C179.371 38.5933 179.558 39.46 179.558 40.46V46.54C179.558 46.6733 179.511 46.7867 179.418 46.88C179.338 46.96 179.231 47 179.098 47H173.938C173.805 47 173.691 46.96 173.598 46.88C173.518 46.7867 173.478 46.6733 173.478 46.54V45.9C173.478 45.7667 173.518 45.66 173.598 45.58C173.691 45.4867 173.805 45.44 173.938 45.44H177.798V40.58C177.798 39.5667 177.538 38.7467 177.018 38.12C176.511 37.48 175.865 37.16 175.078 37.16H172.978L171.418 46.52C171.405 46.6533 171.351 46.7667 171.258 46.86C171.165 46.9533 171.051 47 170.918 47H170.078C169.945 47 169.838 46.9533 169.758 46.86C169.691 46.7667 169.665 46.6533 169.678 46.52L171.278 37.16H170.258C170.125 37.16 170.011 37.12 169.918 37.04C169.838 36.9467 169.798 36.8333 169.798 36.7V36.04C169.798 35.9067 169.838 35.8 169.918 35.72C170.011 35.6267 170.125 35.58 170.258 35.58H175.278Z" fill="#FFEE97"/>
<path d="M130.964 55.8512C130.33 55.3185 129.384 55.401 128.851 56.0355L120.171 66.3747C119.638 67.0092 119.721 67.9553 120.355 68.488C120.989 69.0207 121.936 68.9382 122.468 68.3037L130.184 59.1133L139.375 66.8293C140.009 67.362 140.955 67.2795 141.488 66.645C142.021 66.0105 141.938 65.0644 141.304 64.5317L130.964 55.8512ZM145 229L146.494 228.87L131.494 56.8697L130 57L128.506 57.1303L143.506 229.13L145 229Z" fill="#FFEE97"/>
<path d="M93.5812 311.449C88.8986 326.346 93.5812 350.677 93.5812 352.664H179.825C179.825 352.664 182.91 335.844 179.825 326.346C176.942 317.472 173.144 309.481 166.947 304.001C159.345 297.278 158.752 298.042 144.313 298.042H108.02C97.8734 298.042 98.2638 296.552 93.5812 311.449Z" fill="#C2AD92"/>
<rect x="113.201" y="293.031" width="2.89342" height="4.96938" fill="#A7A7A7"/>
<rect x="143.582" y="293.031" width="2.89342" height="4.96938" fill="#A7A7A7"/>
<path d="M102.593 276.135C101.544 282.644 101.208 290.258 102.593 293.031C103.978 295.804 121.433 293.917 133.455 293.031C141.401 292.446 148.257 295.99 153.71 290.546C159.431 284.835 158.441 277.528 156.121 269.675C154.125 262.917 151.081 259.383 145.512 255.264C139.943 251.145 115.613 250.791 110.791 255.264C105.969 259.736 103.991 267.461 102.593 276.135Z" fill="#C2AD92"/>
<rect width="3.08048" height="8.35439" rx="1.54024" transform="matrix(0.418104 -0.908399 0.926271 0.376857 292.861 307.913)" fill="#947E61"/>
<rect width="3.08048" height="8.35439" rx="1.54024" transform="matrix(-0.418104 -0.908399 -0.926271 0.376857 91.0898 307.913)" fill="#947E61"/>
<g opacity="0.78" filter="url(#filter6_f_393_5)">
<path d="M289.614 312.165C294.297 327.252 289.614 351.893 289.614 353.905H203.37C203.37 353.905 200.285 336.871 203.37 327.252C206.253 318.264 210.051 310.172 216.248 304.622C223.85 297.814 224.443 298.587 238.883 298.587H275.175C285.322 298.587 284.932 297.079 289.614 312.165Z" fill="#FFEE97"/>
<rect width="2.89342" height="5.03268" transform="matrix(-1 0 0 1 269.996 293.513)" fill="#A7A7A7"/>
<rect width="2.89342" height="5.03268" transform="matrix(-1 0 0 1 239.615 293.513)" fill="#A7A7A7"/>
<path d="M280.604 276.402C281.653 282.994 281.99 290.704 280.604 293.513C279.219 296.321 261.764 294.409 249.742 293.513C241.796 292.92 234.94 296.509 229.487 290.996C223.766 285.212 224.756 277.812 227.076 269.859C229.072 263.015 232.116 259.436 237.685 255.264C243.254 251.093 267.584 250.735 272.406 255.264C277.229 259.794 279.207 267.617 280.604 276.402Z" fill="#FFEE97"/>
</g>
<path d="M236.554 418.58C237.767 418.58 238.727 418.753 239.434 419.1C240.154 419.447 240.674 420 240.994 420.76C241.314 421.52 241.474 422.533 241.474 423.8C241.474 425.507 241.054 426.84 240.214 427.8C239.374 428.747 238.28 429.447 236.934 429.9L236.094 430.18C236.067 430.193 236.02 430.2 235.954 430.2C235.86 430.2 235.774 430.167 235.694 430.1C235.627 430.033 235.594 429.94 235.594 429.82V428.94C235.594 428.833 235.634 428.733 235.714 428.64C235.794 428.533 235.9 428.453 236.034 428.4L236.814 428.1C237.734 427.753 238.44 427.253 238.934 426.6C239.427 425.947 239.674 424.987 239.674 423.72C239.674 422.827 239.567 422.127 239.354 421.62C239.14 421.1 238.787 420.727 238.294 420.5C237.814 420.273 237.147 420.16 236.294 420.16H235.674H235.614L233.774 420.14C233.64 420.14 233.527 420.1 233.434 420.02C233.354 419.94 233.314 419.833 233.314 419.7V416.26C233.314 416.127 233.354 416.02 233.434 415.94C233.527 415.847 233.64 415.8 233.774 415.8H234.574C234.707 415.8 234.814 415.847 234.894 415.94C234.974 416.02 235.014 416.127 235.014 416.26V418.58H236.154H236.554ZM247.023 418.58C248.236 418.58 249.196 418.753 249.903 419.1C250.623 419.447 251.143 420 251.463 420.76C251.783 421.52 251.943 422.533 251.943 423.8C251.943 425.507 251.523 426.84 250.683 427.8C249.843 428.747 248.749 429.447 247.403 429.9L246.563 430.18C246.536 430.193 246.489 430.2 246.423 430.2C246.329 430.2 246.243 430.167 246.163 430.1C246.096 430.033 246.063 429.94 246.063 429.82V428.94C246.063 428.833 246.103 428.733 246.183 428.64C246.263 428.533 246.369 428.453 246.503 428.4L247.283 428.1C248.203 427.753 248.909 427.253 249.403 426.6C249.896 425.947 250.143 424.987 250.143 423.72C250.143 422.827 250.036 422.127 249.823 421.62C249.609 421.1 249.256 420.727 248.763 420.5C248.283 420.273 247.616 420.16 246.763 420.16H246.143H246.083L244.243 420.14C244.109 420.14 243.996 420.1 243.903 420.02C243.823 419.94 243.783 419.833 243.783 419.7V416.26C243.783 416.127 243.823 416.02 243.903 415.94C243.996 415.847 244.109 415.8 244.243 415.8H245.043C245.176 415.8 245.283 415.847 245.363 415.94C245.443 416.02 245.483 416.127 245.483 416.26V418.58H246.623H247.023ZM259.731 418.58C260.558 418.58 261.291 418.78 261.931 419.18C262.585 419.567 263.091 420.127 263.451 420.86C263.825 421.593 264.011 422.46 264.011 423.46V429.54C264.011 429.673 263.965 429.787 263.871 429.88C263.791 429.96 263.685 430 263.551 430H258.391C258.258 430 258.145 429.96 258.051 429.88C257.971 429.787 257.931 429.673 257.931 429.54V428.9C257.931 428.767 257.971 428.66 258.051 428.58C258.145 428.487 258.258 428.44 258.391 428.44H262.251V423.58C262.251 422.567 261.991 421.747 261.471 421.12C260.965 420.48 260.318 420.16 259.531 420.16H257.431L255.871 429.52C255.858 429.653 255.805 429.767 255.711 429.86C255.618 429.953 255.505 430 255.371 430H254.531C254.398 430 254.291 429.953 254.211 429.86C254.145 429.767 254.118 429.653 254.131 429.52L255.731 420.16H254.711C254.578 420.16 254.465 420.12 254.371 420.04C254.291 419.947 254.251 419.833 254.251 419.7V419.04C254.251 418.907 254.291 418.8 254.371 418.72C254.465 418.627 254.578 418.58 254.711 418.58H259.731ZM274.327 418.58C275.541 418.58 276.501 418.753 277.207 419.1C277.927 419.447 278.447 420 278.767 420.76C279.087 421.52 279.247 422.533 279.247 423.8C279.247 425.507 278.827 426.84 277.987 427.8C277.147 428.747 276.054 429.447 274.707 429.9L273.867 430.18C273.841 430.193 273.794 430.2 273.727 430.2C273.634 430.2 273.547 430.167 273.467 430.1C273.401 430.033 273.367 429.94 273.367 429.82V428.94C273.367 428.833 273.407 428.733 273.487 428.64C273.567 428.533 273.674 428.453 273.807 428.4L274.587 428.1C275.507 427.753 276.214 427.253 276.707 426.6C277.201 425.947 277.447 424.987 277.447 423.72C277.447 422.827 277.341 422.127 277.127 421.62C276.914 421.1 276.561 420.727 276.067 420.5C275.587 420.273 274.921 420.16 274.067 420.16H273.447H273.387L271.547 420.14C271.414 420.14 271.301 420.1 271.207 420.02C271.127 419.94 271.087 419.833 271.087 419.7V416.26C271.087 416.127 271.127 416.02 271.207 415.94C271.301 415.847 271.414 415.8 271.547 415.8H272.347C272.481 415.8 272.587 415.847 272.667 415.94C272.747 416.02 272.787 416.127 272.787 416.26V418.58H273.927H274.327ZM284.796 418.58C286.009 418.58 286.969 418.753 287.676 419.1C288.396 419.447 288.916 420 289.236 420.76C289.556 421.52 289.716 422.533 289.716 423.8C289.716 425.507 289.296 426.84 288.456 427.8C287.616 428.747 286.523 429.447 285.176 429.9L284.336 430.18C284.309 430.193 284.263 430.2 284.196 430.2C284.103 430.2 284.016 430.167 283.936 430.1C283.869 430.033 283.836 429.94 283.836 429.82V428.94C283.836 428.833 283.876 428.733 283.956 428.64C284.036 428.533 284.143 428.453 284.276 428.4L285.056 428.1C285.976 427.753 286.683 427.253 287.176 426.6C287.669 425.947 287.916 424.987 287.916 423.72C287.916 422.827 287.809 422.127 287.596 421.62C287.383 421.1 287.029 420.727 286.536 420.5C286.056 420.273 285.389 420.16 284.536 420.16H283.916H283.856L282.016 420.14C281.883 420.14 281.769 420.1 281.676 420.02C281.596 419.94 281.556 419.833 281.556 419.7V416.26C281.556 416.127 281.596 416.02 281.676 415.94C281.769 415.847 281.883 415.8 282.016 415.8H282.816C282.949 415.8 283.056 415.847 283.136 415.94C283.216 416.02 283.256 416.127 283.256 416.26V418.58H284.396H284.796ZM297.505 418.58C298.331 418.58 299.065 418.78 299.705 419.18C300.358 419.567 300.865 420.127 301.225 420.86C301.598 421.593 301.785 422.46 301.785 423.46V429.54C301.785 429.673 301.738 429.787 301.645 429.88C301.565 429.96 301.458 430 301.325 430H296.165C296.031 430 295.918 429.96 295.825 429.88C295.745 429.787 295.705 429.673 295.705 429.54V428.9C295.705 428.767 295.745 428.66 295.825 428.58C295.918 428.487 296.031 428.44 296.165 428.44H300.025V423.58C300.025 422.567 299.765 421.747 299.245 421.12C298.738 420.48 298.091 420.16 297.305 420.16H295.205L293.645 429.52C293.631 429.653 293.578 429.767 293.485 429.86C293.391 429.953 293.278 430 293.145 430H292.305C292.171 430 292.065 429.953 291.985 429.86C291.918 429.767 291.891 429.653 291.905 429.52L293.505 420.16H292.485C292.351 420.16 292.238 420.12 292.145 420.04C292.065 419.947 292.025 419.833 292.025 419.7V419.04C292.025 418.907 292.065 418.8 292.145 418.72C292.238 418.627 292.351 418.58 292.485 418.58H297.505ZM312.101 418.58C313.314 418.58 314.274 418.753 314.981 419.1C315.701 419.447 316.221 420 316.541 420.76C316.861 421.52 317.021 422.533 317.021 423.8C317.021 425.507 316.601 426.84 315.761 427.8C314.921 428.747 313.827 429.447 312.481 429.9L311.641 430.18C311.614 430.193 311.567 430.2 311.501 430.2C311.407 430.2 311.321 430.167 311.241 430.1C311.174 430.033 311.141 429.94 311.141 429.82V428.94C311.141 428.833 311.181 428.733 311.261 428.64C311.341 428.533 311.447 428.453 311.581 428.4L312.361 428.1C313.281 427.753 313.987 427.253 314.481 426.6C314.974 425.947 315.221 424.987 315.221 423.72C315.221 422.827 315.114 422.127 314.901 421.62C314.687 421.1 314.334 420.727 313.841 420.5C313.361 420.273 312.694 420.16 311.841 420.16H311.221H311.161L309.321 420.14C309.187 420.14 309.074 420.1 308.981 420.02C308.901 419.94 308.861 419.833 308.861 419.7V416.26C308.861 416.127 308.901 416.02 308.981 415.94C309.074 415.847 309.187 415.8 309.321 415.8H310.121C310.254 415.8 310.361 415.847 310.441 415.94C310.521 416.02 310.561 416.127 310.561 416.26V418.58H311.701H312.101ZM322.569 418.58C323.783 418.58 324.743 418.753 325.449 419.1C326.169 419.447 326.689 420 327.009 420.76C327.329 421.52 327.489 422.533 327.489 423.8C327.489 425.507 327.069 426.84 326.229 427.8C325.389 428.747 324.296 429.447 322.949 429.9L322.109 430.18C322.083 430.193 322.036 430.2 321.969 430.2C321.876 430.2 321.789 430.167 321.709 430.1C321.643 430.033 321.609 429.94 321.609 429.82V428.94C321.609 428.833 321.649 428.733 321.729 428.64C321.809 428.533 321.916 428.453 322.049 428.4L322.829 428.1C323.749 427.753 324.456 427.253 324.949 426.6C325.443 425.947 325.689 424.987 325.689 423.72C325.689 422.827 325.583 422.127 325.369 421.62C325.156 421.1 324.803 420.727 324.309 420.5C323.829 420.273 323.163 420.16 322.309 420.16H321.689H321.629L319.789 420.14C319.656 420.14 319.543 420.1 319.449 420.02C319.369 419.94 319.329 419.833 319.329 419.7V416.26C319.329 416.127 319.369 416.02 319.449 415.94C319.543 415.847 319.656 415.8 319.789 415.8H320.589C320.723 415.8 320.829 415.847 320.909 415.94C320.989 416.02 321.029 416.127 321.029 416.26V418.58H322.169H322.569ZM335.278 418.58C336.105 418.58 336.838 418.78 337.478 419.18C338.131 419.567 338.638 420.127 338.998 420.86C339.371 421.593 339.558 422.46 339.558 423.46V429.54C339.558 429.673 339.511 429.787 339.418 429.88C339.338 429.96 339.231 430 339.098 430H333.938C333.805 430 333.691 429.96 333.598 429.88C333.518 429.787 333.478 429.673 333.478 429.54V428.9C333.478 428.767 333.518 428.66 333.598 428.58C333.691 428.487 333.805 428.44 333.938 428.44H337.798V423.58C337.798 422.567 337.538 421.747 337.018 421.12C336.511 420.48 335.865 420.16 335.078 420.16H332.978L331.418 429.52C331.405 429.653 331.351 429.767 331.258 429.86C331.165 429.953 331.051 430 330.918 430H330.078C329.945 430 329.838 429.953 329.758 429.86C329.691 429.767 329.665 429.653 329.678 429.52L331.278 420.16H330.258C330.125 420.16 330.011 420.12 329.918 420.04C329.838 419.947 329.798 419.833 329.798 419.7V419.04C329.798 418.907 329.838 418.8 329.918 418.72C330.011 418.627 330.125 418.58 330.258 418.58H335.278ZM236.554 442.58C237.767 442.58 238.727 442.753 239.434 443.1C240.154 443.447 240.674 444 240.994 444.76C241.314 445.52 241.474 446.533 241.474 447.8C241.474 449.507 241.054 450.84 240.214 451.8C239.374 452.747 238.28 453.447 236.934 453.9L236.094 454.18C236.067 454.193 236.02 454.2 235.954 454.2C235.86 454.2 235.774 454.167 235.694 454.1C235.627 454.033 235.594 453.94 235.594 453.82V452.94C235.594 452.833 235.634 452.733 235.714 452.64C235.794 452.533 235.9 452.453 236.034 452.4L236.814 452.1C237.734 451.753 238.44 451.253 238.934 450.6C239.427 449.947 239.674 448.987 239.674 447.72C239.674 446.827 239.567 446.127 239.354 445.62C239.14 445.1 238.787 444.727 238.294 444.5C237.814 444.273 237.147 444.16 236.294 444.16H235.674H235.614L233.774 444.14C233.64 444.14 233.527 444.1 233.434 444.02C233.354 443.94 233.314 443.833 233.314 443.7V440.26C233.314 440.127 233.354 440.02 233.434 439.94C233.527 439.847 233.64 439.8 233.774 439.8H234.574C234.707 439.8 234.814 439.847 234.894 439.94C234.974 440.02 235.014 440.127 235.014 440.26V442.58H236.154H236.554ZM247.023 442.58C248.236 442.58 249.196 442.753 249.903 443.1C250.623 443.447 251.143 444 251.463 444.76C251.783 445.52 251.943 446.533 251.943 447.8C251.943 449.507 251.523 450.84 250.683 451.8C249.843 452.747 248.749 453.447 247.403 453.9L246.563 454.18C246.536 454.193 246.489 454.2 246.423 454.2C246.329 454.2 246.243 454.167 246.163 454.1C246.096 454.033 246.063 453.94 246.063 453.82V452.94C246.063 452.833 246.103 452.733 246.183 452.64C246.263 452.533 246.369 452.453 246.503 452.4L247.283 452.1C248.203 451.753 248.909 451.253 249.403 450.6C249.896 449.947 250.143 448.987 250.143 447.72C250.143 446.827 250.036 446.127 249.823 445.62C249.609 445.1 249.256 444.727 248.763 444.5C248.283 444.273 247.616 444.16 246.763 444.16H246.143H246.083L244.243 444.14C244.109 444.14 243.996 444.1 243.903 444.02C243.823 443.94 243.783 443.833 243.783 443.7V440.26C243.783 440.127 243.823 440.02 243.903 439.94C243.996 439.847 244.109 439.8 244.243 439.8H245.043C245.176 439.8 245.283 439.847 245.363 439.94C245.443 440.02 245.483 440.127 245.483 440.26V442.58H246.623H247.023ZM259.731 442.58C260.558 442.58 261.291 442.78 261.931 443.18C262.585 443.567 263.091 444.127 263.451 444.86C263.825 445.593 264.011 446.46 264.011 447.46V453.54C264.011 453.673 263.965 453.787 263.871 453.88C263.791 453.96 263.685 454 263.551 454H258.391C258.258 454 258.145 453.96 258.051 453.88C257.971 453.787 257.931 453.673 257.931 453.54V452.9C257.931 452.767 257.971 452.66 258.051 452.58C258.145 452.487 258.258 452.44 258.391 452.44H262.251V447.58C262.251 446.567 261.991 445.747 261.471 445.12C260.965 444.48 260.318 444.16 259.531 444.16H257.431L255.871 453.52C255.858 453.653 255.805 453.767 255.711 453.86C255.618 453.953 255.505 454 255.371 454H254.531C254.398 454 254.291 453.953 254.211 453.86C254.145 453.767 254.118 453.653 254.131 453.52L255.731 444.16H254.711C254.578 444.16 254.465 444.12 254.371 444.04C254.291 443.947 254.251 443.833 254.251 443.7V443.04C254.251 442.907 254.291 442.8 254.371 442.72C254.465 442.627 254.578 442.58 254.711 442.58H259.731ZM274.327 442.58C275.541 442.58 276.501 442.753 277.207 443.1C277.927 443.447 278.447 444 278.767 444.76C279.087 445.52 279.247 446.533 279.247 447.8C279.247 449.507 278.827 450.84 277.987 451.8C277.147 452.747 276.054 453.447 274.707 453.9L273.867 454.18C273.841 454.193 273.794 454.2 273.727 454.2C273.634 454.2 273.547 454.167 273.467 454.1C273.401 454.033 273.367 453.94 273.367 453.82V452.94C273.367 452.833 273.407 452.733 273.487 452.64C273.567 452.533 273.674 452.453 273.807 452.4L274.587 452.1C275.507 451.753 276.214 451.253 276.707 450.6C277.201 449.947 277.447 448.987 277.447 447.72C277.447 446.827 277.341 446.127 277.127 445.62C276.914 445.1 276.561 444.727 276.067 444.5C275.587 444.273 274.921 444.16 274.067 444.16H273.447H273.387L271.547 444.14C271.414 444.14 271.301 444.1 271.207 444.02C271.127 443.94 271.087 443.833 271.087 443.7V440.26C271.087 440.127 271.127 440.02 271.207 439.94C271.301 439.847 271.414 439.8 271.547 439.8H272.347C272.481 439.8 272.587 439.847 272.667 439.94C272.747 440.02 272.787 440.127 272.787 440.26V442.58H273.927H274.327ZM284.796 442.58C286.009 442.58 286.969 442.753 287.676 443.1C288.396 443.447 288.916 444 289.236 444.76C289.556 445.52 289.716 446.533 289.716 447.8C289.716 449.507 289.296 450.84 288.456 451.8C287.616 452.747 286.523 453.447 285.176 453.9L284.336 454.18C284.309 454.193 284.263 454.2 284.196 454.2C284.103 454.2 284.016 454.167 283.936 454.1C283.869 454.033 283.836 453.94 283.836 453.82V452.94C283.836 452.833 283.876 452.733 283.956 452.64C284.036 452.533 284.143 452.453 284.276 452.4L285.056 452.1C285.976 451.753 286.683 451.253 287.176 450.6C287.669 449.947 287.916 448.987 287.916 447.72C287.916 446.827 287.809 446.127 287.596 445.62C287.383 445.1 287.029 444.727 286.536 444.5C286.056 444.273 285.389 444.16 284.536 444.16H283.916H283.856L282.016 444.14C281.883 444.14 281.769 444.1 281.676 444.02C281.596 443.94 281.556 443.833 281.556 443.7V440.26C281.556 440.127 281.596 440.02 281.676 439.94C281.769 439.847 281.883 439.8 282.016 439.8H282.816C282.949 439.8 283.056 439.847 283.136 439.94C283.216 440.02 283.256 440.127 283.256 440.26V442.58H284.396H284.796ZM297.505 442.58C298.331 442.58 299.065 442.78 299.705 443.18C300.358 443.567 300.865 444.127 301.225 444.86C301.598 445.593 301.785 446.46 301.785 447.46V453.54C301.785 453.673 301.738 453.787 301.645 453.88C301.565 453.96 301.458 454 301.325 454H296.165C296.031 454 295.918 453.96 295.825 453.88C295.745 453.787 295.705 453.673 295.705 453.54V452.9C295.705 452.767 295.745 452.66 295.825 452.58C295.918 452.487 296.031 452.44 296.165 452.44H300.025V447.58C300.025 446.567 299.765 445.747 299.245 445.12C298.738 444.48 298.091 444.16 297.305 444.16H295.205L293.645 453.52C293.631 453.653 293.578 453.767 293.485 453.86C293.391 453.953 293.278 454 293.145 454H292.305C292.171 454 292.065 453.953 291.985 453.86C291.918 453.767 291.891 453.653 291.905 453.52L293.505 444.16H292.485C292.351 444.16 292.238 444.12 292.145 444.04C292.065 443.947 292.025 443.833 292.025 443.7V443.04C292.025 442.907 292.065 442.8 292.145 442.72C292.238 442.627 292.351 442.58 292.485 442.58H297.505ZM312.101 442.58C313.314 442.58 314.274 442.753 314.981 443.1C315.701 443.447 316.221 444 316.541 444.76C316.861 445.52 317.021 446.533 317.021 447.8C317.021 449.507 316.601 450.84 315.761 451.8C314.921 452.747 313.827 453.447 312.481 453.9L311.641 454.18C311.614 454.193 311.567 454.2 311.501 454.2C311.407 454.2 311.321 454.167 311.241 454.1C311.174 454.033 311.141 453.94 311.141 453.82V452.94C311.141 452.833 311.181 452.733 311.261 452.64C311.341 452.533 311.447 452.453 311.581 452.4L312.361 452.1C313.281 451.753 313.987 451.253 314.481 450.6C314.974 449.947 315.221 448.987 315.221 447.72C315.221 446.827 315.114 446.127 314.901 445.62C314.687 445.1 314.334 444.727 313.841 444.5C313.361 444.273 312.694 444.16 311.841 444.16H311.221H311.161L309.321 444.14C309.187 444.14 309.074 444.1 308.981 444.02C308.901 443.94 308.861 443.833 308.861 443.7V440.26C308.861 440.127 308.901 440.02 308.981 439.94C309.074 439.847 309.187 439.8 309.321 439.8H310.121C310.254 439.8 310.361 439.847 310.441 439.94C310.521 440.02 310.561 440.127 310.561 440.26V442.58H311.701H312.101ZM322.569 442.58C323.783 442.58 324.743 442.753 325.449 443.1C326.169 443.447 326.689 444 327.009 444.76C327.329 445.52 327.489 446.533 327.489 447.8C327.489 449.507 327.069 450.84 326.229 451.8C325.389 452.747 324.296 453.447 322.949 453.9L322.109 454.18C322.083 454.193 322.036 454.2 321.969 454.2C321.876 454.2 321.789 454.167 321.709 454.1C321.643 454.033 321.609 453.94 321.609 453.82V452.94C321.609 452.833 321.649 452.733 321.729 452.64C321.809 452.533 321.916 452.453 322.049 452.4L322.829 452.1C323.749 451.753 324.456 451.253 324.949 450.6C325.443 449.947 325.689 448.987 325.689 447.72C325.689 446.827 325.583 446.127 325.369 445.62C325.156 445.1 324.803 444.727 324.309 444.5C323.829 444.273 323.163 444.16 322.309 444.16H321.689H321.629L319.789 444.14C319.656 444.14 319.543 444.1 319.449 444.02C319.369 443.94 319.329 443.833 319.329 443.7V440.26C319.329 440.127 319.369 440.02 319.449 439.94C319.543 439.847 319.656 439.8 319.789 439.8H320.589C320.723 439.8 320.829 439.847 320.909 439.94C320.989 440.02 321.029 440.127 321.029 440.26V442.58H322.169H322.569ZM335.278 442.58C336.105 442.58 336.838 442.78 337.478 443.18C338.131 443.567 338.638 444.127 338.998 444.86C339.371 445.593 339.558 446.46 339.558 447.46V453.54C339.558 453.673 339.511 453.787 339.418 453.88C339.338 453.96 339.231 454 339.098 454H333.938C333.805 454 333.691 453.96 333.598 453.88C333.518 453.787 333.478 453.673 333.478 453.54V452.9C333.478 452.767 333.518 452.66 333.598 452.58C333.691 452.487 333.805 452.44 333.938 452.44H337.798V447.58C337.798 446.567 337.538 445.747 337.018 445.12C336.511 444.48 335.865 444.16 335.078 444.16H332.978L331.418 453.52C331.405 453.653 331.351 453.767 331.258 453.86C331.165 453.953 331.051 454 330.918 454H330.078C329.945 454 329.838 453.953 329.758 453.86C329.691 453.767 329.665 453.653 329.678 453.52L331.278 444.16H330.258C330.125 444.16 330.011 444.12 329.918 444.04C329.838 443.947 329.798 443.833 329.798 443.7V443.04C329.798 442.907 329.838 442.8 329.918 442.72C330.011 442.627 330.125 442.58 330.258 442.58H335.278Z" fill="#FFEE97"/>
<path d="M269.5 403.414C270.281 403.69 271.138 403.281 271.414 402.5L275.914 389.772C276.19 388.991 275.781 388.134 275 387.858C274.219 387.582 273.362 387.991 273.086 388.772L269.086 400.086L257.772 396.086C256.991 395.81 256.134 396.219 255.858 397C255.582 397.781 255.991 398.638 256.772 398.914L269.5 403.414ZM238 335L236.646 335.646L268.646 402.646L270 402L271.354 401.354L239.354 334.354L238 335Z" fill="#FFEE97"/>
<g opacity="0.78" filter="url(#filter7_f_393_5)">
<path d="M310.821 162.176L310.748 161.832C310.728 161.738 310.766 161.637 310.849 161.563C311.036 161.396 311.334 161.453 311.379 161.664L311.609 162.752L311.754 163.432C311.823 163.758 311.995 164.05 312.252 164.276L315.202 166.869C315.768 167.367 316.664 167.478 317.474 167.151L329.864 162.155C330.861 161.752 331.461 160.8 331.274 159.916L330.256 155.114C330.211 154.903 329.988 154.776 329.737 154.817C329.546 154.849 329.364 154.782 329.272 154.646L328.49 153.493C328.286 153.192 328.614 152.775 329.027 152.811C329.186 152.825 329.316 152.909 329.376 153.035L332.416 159.517C332.847 160.436 332.288 161.582 331.175 162.062L316.805 168.261C315.794 168.698 314.663 168.434 314.174 167.649L310.919 162.42C310.872 162.345 310.839 162.263 310.821 162.176Z" fill="#FFEE97"/>
<path d="M310.821 162.176L310.748 161.832C310.728 161.738 310.766 161.637 310.849 161.563C311.036 161.396 311.334 161.453 311.379 161.664L311.609 162.752L311.754 163.432C311.823 163.758 311.995 164.05 312.252 164.276L315.202 166.869C315.768 167.367 316.664 167.478 317.474 167.151L329.864 162.155C330.861 161.752 331.461 160.8 331.274 159.916L330.256 155.114C330.211 154.903 329.988 154.776 329.737 154.817C329.546 154.849 329.364 154.782 329.272 154.646L328.49 153.493C328.286 153.192 328.614 152.775 329.027 152.811C329.186 152.825 329.316 152.909 329.376 153.035L332.416 159.517C332.847 160.436 332.288 161.582 331.175 162.062L316.805 168.261C315.794 168.698 314.663 168.434 314.174 167.649L310.919 162.42C310.872 162.345 310.839 162.263 310.821 162.176Z" stroke="#FFEE97" stroke-width="6"/>
</g>
<path d="M236.554 7.58C237.767 7.58 238.727 7.75333 239.434 8.1C240.154 8.44667 240.674 9 240.994 9.76C241.314 10.52 241.474 11.5333 241.474 12.8C241.474 14.5067 241.054 15.84 240.214 16.8C239.374 17.7467 238.28 18.4467 236.934 18.9L236.094 19.18C236.067 19.1933 236.02 19.2 235.954 19.2C235.86 19.2 235.774 19.1667 235.694 19.1C235.627 19.0333 235.594 18.94 235.594 18.82V17.94C235.594 17.8333 235.634 17.7333 235.714 17.64C235.794 17.5333 235.9 17.4533 236.034 17.4L236.814 17.1C237.734 16.7533 238.44 16.2533 238.934 15.6C239.427 14.9467 239.674 13.9867 239.674 12.72C239.674 11.8267 239.567 11.1267 239.354 10.62C239.14 10.1 238.787 9.72667 238.294 9.5C237.814 9.27333 237.147 9.16 236.294 9.16H235.674H235.614L233.774 9.14C233.64 9.14 233.527 9.1 233.434 9.02C233.354 8.94 233.314 8.83333 233.314 8.7V5.26C233.314 5.12667 233.354 5.02 233.434 4.94C233.527 4.84667 233.64 4.8 233.774 4.8H234.574C234.707 4.8 234.814 4.84667 234.894 4.94C234.974 5.02 235.014 5.12667 235.014 5.26V7.58H236.154H236.554ZM247.023 7.58C248.236 7.58 249.196 7.75333 249.903 8.1C250.623 8.44667 251.143 9 251.463 9.76C251.783 10.52 251.943 11.5333 251.943 12.8C251.943 14.5067 251.523 15.84 250.683 16.8C249.843 17.7467 248.749 18.4467 247.403 18.9L246.563 19.18C246.536 19.1933 246.489 19.2 246.423 19.2C246.329 19.2 246.243 19.1667 246.163 19.1C246.096 19.0333 246.063 18.94 246.063 18.82V17.94C246.063 17.8333 246.103 17.7333 246.183 17.64C246.263 17.5333 246.369 17.4533 246.503 17.4L247.283 17.1C248.203 16.7533 248.909 16.2533 249.403 15.6C249.896 14.9467 250.143 13.9867 250.143 12.72C250.143 11.8267 250.036 11.1267 249.823 10.62C249.609 10.1 249.256 9.72667 248.763 9.5C248.283 9.27333 247.616 9.16 246.763 9.16H246.143H246.083L244.243 9.14C244.109 9.14 243.996 9.1 243.903 9.02C243.823 8.94 243.783 8.83333 243.783 8.7V5.26C243.783 5.12667 243.823 5.02 243.903 4.94C243.996 4.84667 244.109 4.8 244.243 4.8H245.043C245.176 4.8 245.283 4.84667 245.363 4.94C245.443 5.02 245.483 5.12667 245.483 5.26V7.58H246.623H247.023ZM259.731 7.58C260.558 7.58 261.291 7.78 261.931 8.18C262.585 8.56667 263.091 9.12667 263.451 9.86C263.825 10.5933 264.011 11.46 264.011 12.46V18.54C264.011 18.6733 263.965 18.7867 263.871 18.88C263.791 18.96 263.685 19 263.551 19H258.391C258.258 19 258.145 18.96 258.051 18.88C257.971 18.7867 257.931 18.6733 257.931 18.54V17.9C257.931 17.7667 257.971 17.66 258.051 17.58C258.145 17.4867 258.258 17.44 258.391 17.44H262.251V12.58C262.251 11.5667 261.991 10.7467 261.471 10.12C260.965 9.48 260.318 9.16 259.531 9.16H257.431L255.871 18.52C255.858 18.6533 255.805 18.7667 255.711 18.86C255.618 18.9533 255.505 19 255.371 19H254.531C254.398 19 254.291 18.9533 254.211 18.86C254.145 18.7667 254.118 18.6533 254.131 18.52L255.731 9.16H254.711C254.578 9.16 254.465 9.12 254.371 9.04C254.291 8.94667 254.251 8.83333 254.251 8.7V8.04C254.251 7.90667 254.291 7.8 254.371 7.72C254.465 7.62667 254.578 7.58 254.711 7.58H259.731ZM274.327 7.58C275.541 7.58 276.501 7.75333 277.207 8.1C277.927 8.44667 278.447 9 278.767 9.76C279.087 10.52 279.247 11.5333 279.247 12.8C279.247 14.5067 278.827 15.84 277.987 16.8C277.147 17.7467 276.054 18.4467 274.707 18.9L273.867 19.18C273.841 19.1933 273.794 19.2 273.727 19.2C273.634 19.2 273.547 19.1667 273.467 19.1C273.401 19.0333 273.367 18.94 273.367 18.82V17.94C273.367 17.8333 273.407 17.7333 273.487 17.64C273.567 17.5333 273.674 17.4533 273.807 17.4L274.587 17.1C275.507 16.7533 276.214 16.2533 276.707 15.6C277.201 14.9467 277.447 13.9867 277.447 12.72C277.447 11.8267 277.341 11.1267 277.127 10.62C276.914 10.1 276.561 9.72667 276.067 9.5C275.587 9.27333 274.921 9.16 274.067 9.16H273.447H273.387L271.547 9.14C271.414 9.14 271.301 9.1 271.207 9.02C271.127 8.94 271.087 8.83333 271.087 8.7V5.26C271.087 5.12667 271.127 5.02 271.207 4.94C271.301 4.84667 271.414 4.8 271.547 4.8H272.347C272.481 4.8 272.587 4.84667 272.667 4.94C272.747 5.02 272.787 5.12667 272.787 5.26V7.58H273.927H274.327ZM284.796 7.58C286.009 7.58 286.969 7.75333 287.676 8.1C288.396 8.44667 288.916 9 289.236 9.76C289.556 10.52 289.716 11.5333 289.716 12.8C289.716 14.5067 289.296 15.84 288.456 16.8C287.616 17.7467 286.523 18.4467 285.176 18.9L284.336 19.18C284.309 19.1933 284.263 19.2 284.196 19.2C284.103 19.2 284.016 19.1667 283.936 19.1C283.869 19.0333 283.836 18.94 283.836 18.82V17.94C283.836 17.8333 283.876 17.7333 283.956 17.64C284.036 17.5333 284.143 17.4533 284.276 17.4L285.056 17.1C285.976 16.7533 286.683 16.2533 287.176 15.6C287.669 14.9467 287.916 13.9867 287.916 12.72C287.916 11.8267 287.809 11.1267 287.596 10.62C287.383 10.1 287.029 9.72667 286.536 9.5C286.056 9.27333 285.389 9.16 284.536 9.16H283.916H283.856L282.016 9.14C281.883 9.14 281.769 9.1 281.676 9.02C281.596 8.94 281.556 8.83333 281.556 8.7V5.26C281.556 5.12667 281.596 5.02 281.676 4.94C281.769 4.84667 281.883 4.8 282.016 4.8H282.816C282.949 4.8 283.056 4.84667 283.136 4.94C283.216 5.02 283.256 5.12667 283.256 5.26V7.58H284.396H284.796ZM297.505 7.58C298.331 7.58 299.065 7.78 299.705 8.18C300.358 8.56667 300.865 9.12667 301.225 9.86C301.598 10.5933 301.785 11.46 301.785 12.46V18.54C301.785 18.6733 301.738 18.7867 301.645 18.88C301.565 18.96 301.458 19 301.325 19H296.165C296.031 19 295.918 18.96 295.825 18.88C295.745 18.7867 295.705 18.6733 295.705 18.54V17.9C295.705 17.7667 295.745 17.66 295.825 17.58C295.918 17.4867 296.031 17.44 296.165 17.44H300.025V12.58C300.025 11.5667 299.765 10.7467 299.245 10.12C298.738 9.48 298.091 9.16 297.305 9.16H295.205L293.645 18.52C293.631 18.6533 293.578 18.7667 293.485 18.86C293.391 18.9533 293.278 19 293.145 19H292.305C292.171 19 292.065 18.9533 291.985 18.86C291.918 18.7667 291.891 18.6533 291.905 18.52L293.505 9.16H292.485C292.351 9.16 292.238 9.12 292.145 9.04C292.065 8.94667 292.025 8.83333 292.025 8.7V8.04C292.025 7.90667 292.065 7.8 292.145 7.72C292.238 7.62667 292.351 7.58 292.485 7.58H297.505ZM312.101 7.58C313.314 7.58 314.274 7.75333 314.981 8.1C315.701 8.44667 316.221 9 316.541 9.76C316.861 10.52 317.021 11.5333 317.021 12.8C317.021 14.5067 316.601 15.84 315.761 16.8C314.921 17.7467 313.827 18.4467 312.481 18.9L311.641 19.18C311.614 19.1933 311.567 19.2 311.501 19.2C311.407 19.2 311.321 19.1667 311.241 19.1C311.174 19.0333 311.141 18.94 311.141 18.82V17.94C311.141 17.8333 311.181 17.7333 311.261 17.64C311.341 17.5333 311.447 17.4533 311.581 17.4L312.361 17.1C313.281 16.7533 313.987 16.2533 314.481 15.6C314.974 14.9467 315.221 13.9867 315.221 12.72C315.221 11.8267 315.114 11.1267 314.901 10.62C314.687 10.1 314.334 9.72667 313.841 9.5C313.361 9.27333 312.694 9.16 311.841 9.16H311.221H311.161L309.321 9.14C309.187 9.14 309.074 9.1 308.981 9.02C308.901 8.94 308.861 8.83333 308.861 8.7V5.26C308.861 5.12667 308.901 5.02 308.981 4.94C309.074 4.84667 309.187 4.8 309.321 4.8H310.121C310.254 4.8 310.361 4.84667 310.441 4.94C310.521 5.02 310.561 5.12667 310.561 5.26V7.58H311.701H312.101ZM322.569 7.58C323.783 7.58 324.743 7.75333 325.449 8.1C326.169 8.44667 326.689 9 327.009 9.76C327.329 10.52 327.489 11.5333 327.489 12.8C327.489 14.5067 327.069 15.84 326.229 16.8C325.389 17.7467 324.296 18.4467 322.949 18.9L322.109 19.18C322.083 19.1933 322.036 19.2 321.969 19.2C321.876 19.2 321.789 19.1667 321.709 19.1C321.643 19.0333 321.609 18.94 321.609 18.82V17.94C321.609 17.8333 321.649 17.7333 321.729 17.64C321.809 17.5333 321.916 17.4533 322.049 17.4L322.829 17.1C323.749 16.7533 324.456 16.2533 324.949 15.6C325.443 14.9467 325.689 13.9867 325.689 12.72C325.689 11.8267 325.583 11.1267 325.369 10.62C325.156 10.1 324.803 9.72667 324.309 9.5C323.829 9.27333 323.163 9.16 322.309 9.16H321.689H321.629L319.789 9.14C319.656 9.14 319.543 9.1 319.449 9.02C319.369 8.94 319.329 8.83333 319.329 8.7V5.26C319.329 5.12667 319.369 5.02 319.449 4.94C319.543 4.84667 319.656 4.8 319.789 4.8H320.589C320.723 4.8 320.829 4.84667 320.909 4.94C320.989 5.02 321.029 5.12667 321.029 5.26V7.58H322.169H322.569ZM335.278 7.58C336.105 7.58 336.838 7.78 337.478 8.18C338.131 8.56667 338.638 9.12667 338.998 9.86C339.371 10.5933 339.558 11.46 339.558 12.46V18.54C339.558 18.6733 339.511 18.7867 339.418 18.88C339.338 18.96 339.231 19 339.098 19H333.938C333.805 19 333.691 18.96 333.598 18.88C333.518 18.7867 333.478 18.6733 333.478 18.54V17.9C333.478 17.7667 333.518 17.66 333.598 17.58C333.691 17.4867 333.805 17.44 333.938 17.44H337.798V12.58C337.798 11.5667 337.538 10.7467 337.018 10.12C336.511 9.48 335.865 9.16 335.078 9.16H332.978L331.418 18.52C331.405 18.6533 331.351 18.7667 331.258 18.86C331.165 18.9533 331.051 19 330.918 19H330.078C329.945 19 329.838 18.9533 329.758 18.86C329.691 18.7667 329.665 18.6533 329.678 18.52L331.278 9.16H330.258C330.125 9.16 330.011 9.12 329.918 9.04C329.838 8.94667 329.798 8.83333 329.798 8.7V8.04C329.798 7.90667 329.838 7.8 329.918 7.72C330.011 7.62667 330.125 7.58 330.258 7.58H335.278ZM236.554 31.58C237.767 31.58 238.727 31.7533 239.434 32.1C240.154 32.4467 240.674 33 240.994 33.76C241.314 34.52 241.474 35.5333 241.474 36.8C241.474 38.5067 241.054 39.84 240.214 40.8C239.374 41.7467 238.28 42.4467 236.934 42.9L236.094 43.18C236.067 43.1933 236.02 43.2 235.954 43.2C235.86 43.2 235.774 43.1667 235.694 43.1C235.627 43.0333 235.594 42.94 235.594 42.82V41.94C235.594 41.8333 235.634 41.7333 235.714 41.64C235.794 41.5333 235.9 41.4533 236.034 41.4L236.814 41.1C237.734 40.7533 238.44 40.2533 238.934 39.6C239.427 38.9467 239.674 37.9867 239.674 36.72C239.674 35.8267 239.567 35.1267 239.354 34.62C239.14 34.1 238.787 33.7267 238.294 33.5C237.814 33.2733 237.147 33.16 236.294 33.16H235.674H235.614L233.774 33.14C233.64 33.14 233.527 33.1 233.434 33.02C233.354 32.94 233.314 32.8333 233.314 32.7V29.26C233.314 29.1267 233.354 29.02 233.434 28.94C233.527 28.8467 233.64 28.8 233.774 28.8H234.574C234.707 28.8 234.814 28.8467 234.894 28.94C234.974 29.02 235.014 29.1267 235.014 29.26V31.58H236.154H236.554ZM247.023 31.58C248.236 31.58 249.196 31.7533 249.903 32.1C250.623 32.4467 251.143 33 251.463 33.76C251.783 34.52 251.943 35.5333 251.943 36.8C251.943 38.5067 251.523 39.84 250.683 40.8C249.843 41.7467 248.749 42.4467 247.403 42.9L246.563 43.18C246.536 43.1933 246.489 43.2 246.423 43.2C246.329 43.2 246.243 43.1667 246.163 43.1C246.096 43.0333 246.063 42.94 246.063 42.82V41.94C246.063 41.8333 246.103 41.7333 246.183 41.64C246.263 41.5333 246.369 41.4533 246.503 41.4L247.283 41.1C248.203 40.7533 248.909 40.2533 249.403 39.6C249.896 38.9467 250.143 37.9867 250.143 36.72C250.143 35.8267 250.036 35.1267 249.823 34.62C249.609 34.1 249.256 33.7267 248.763 33.5C248.283 33.2733 247.616 33.16 246.763 33.16H246.143H246.083L244.243 33.14C244.109 33.14 243.996 33.1 243.903 33.02C243.823 32.94 243.783 32.8333 243.783 32.7V29.26C243.783 29.1267 243.823 29.02 243.903 28.94C243.996 28.8467 244.109 28.8 244.243 28.8H245.043C245.176 28.8 245.283 28.8467 245.363 28.94C245.443 29.02 245.483 29.1267 245.483 29.26V31.58H246.623H247.023ZM259.731 31.58C260.558 31.58 261.291 31.78 261.931 32.18C262.585 32.5667 263.091 33.1267 263.451 33.86C263.825 34.5933 264.011 35.46 264.011 36.46V42.54C264.011 42.6733 263.965 42.7867 263.871 42.88C263.791 42.96 263.685 43 263.551 43H258.391C258.258 43 258.145 42.96 258.051 42.88C257.971 42.7867 257.931 42.6733 257.931 42.54V41.9C257.931 41.7667 257.971 41.66 258.051 41.58C258.145 41.4867 258.258 41.44 258.391 41.44H262.251V36.58C262.251 35.5667 261.991 34.7467 261.471 34.12C260.965 33.48 260.318 33.16 259.531 33.16H257.431L255.871 42.52C255.858 42.6533 255.805 42.7667 255.711 42.86C255.618 42.9533 255.505 43 255.371 43H254.531C254.398 43 254.291 42.9533 254.211 42.86C254.145 42.7667 254.118 42.6533 254.131 42.52L255.731 33.16H254.711C254.578 33.16 254.465 33.12 254.371 33.04C254.291 32.9467 254.251 32.8333 254.251 32.7V32.04C254.251 31.9067 254.291 31.8 254.371 31.72C254.465 31.6267 254.578 31.58 254.711 31.58H259.731ZM274.327 31.58C275.541 31.58 276.501 31.7533 277.207 32.1C277.927 32.4467 278.447 33 278.767 33.76C279.087 34.52 279.247 35.5333 279.247 36.8C279.247 38.5067 278.827 39.84 277.987 40.8C277.147 41.7467 276.054 42.4467 274.707 42.9L273.867 43.18C273.841 43.1933 273.794 43.2 273.727 43.2C273.634 43.2 273.547 43.1667 273.467 43.1C273.401 43.0333 273.367 42.94 273.367 42.82V41.94C273.367 41.8333 273.407 41.7333 273.487 41.64C273.567 41.5333 273.674 41.4533 273.807 41.4L274.587 41.1C275.507 40.7533 276.214 40.2533 276.707 39.6C277.201 38.9467 277.447 37.9867 277.447 36.72C277.447 35.8267 277.341 35.1267 277.127 34.62C276.914 34.1 276.561 33.7267 276.067 33.5C275.587 33.2733 274.921 33.16 274.067 33.16H273.447H273.387L271.547 33.14C271.414 33.14 271.301 33.1 271.207 33.02C271.127 32.94 271.087 32.8333 271.087 32.7V29.26C271.087 29.1267 271.127 29.02 271.207 28.94C271.301 28.8467 271.414 28.8 271.547 28.8H272.347C272.481 28.8 272.587 28.8467 272.667 28.94C272.747 29.02 272.787 29.1267 272.787 29.26V31.58H273.927H274.327ZM284.796 31.58C286.009 31.58 286.969 31.7533 287.676 32.1C288.396 32.4467 288.916 33 289.236 33.76C289.556 34.52 289.716 35.5333 289.716 36.8C289.716 38.5067 289.296 39.84 288.456 40.8C287.616 41.7467 286.523 42.4467 285.176 42.9L284.336 43.18C284.309 43.1933 284.263 43.2 284.196 43.2C284.103 43.2 284.016 43.1667 283.936 43.1C283.869 43.0333 283.836 42.94 283.836 42.82V41.94C283.836 41.8333 283.876 41.7333 283.956 41.64C284.036 41.5333 284.143 41.4533 284.276 41.4L285.056 41.1C285.976 40.7533 286.683 40.2533 287.176 39.6C287.669 38.9467 287.916 37.9867 287.916 36.72C287.916 35.8267 287.809 35.1267 287.596 34.62C287.383 34.1 287.029 33.7267 286.536 33.5C286.056 33.2733 285.389 33.16 284.536 33.16H283.916H283.856L282.016 33.14C281.883 33.14 281.769 33.1 281.676 33.02C281.596 32.94 281.556 32.8333 281.556 32.7V29.26C281.556 29.1267 281.596 29.02 281.676 28.94C281.769 28.8467 281.883 28.8 282.016 28.8H282.816C282.949 28.8 283.056 28.8467 283.136 28.94C283.216 29.02 283.256 29.1267 283.256 29.26V31.58H284.396H284.796ZM297.505 31.58C298.331 31.58 299.065 31.78 299.705 32.18C300.358 32.5667 300.865 33.1267 301.225 33.86C301.598 34.5933 301.785 35.46 301.785 36.46V42.54C301.785 42.6733 301.738 42.7867 301.645 42.88C301.565 42.96 301.458 43 301.325 43H296.165C296.031 43 295.918 42.96 295.825 42.88C295.745 42.7867 295.705 42.6733 295.705 42.54V41.9C295.705 41.7667 295.745 41.66 295.825 41.58C295.918 41.4867 296.031 41.44 296.165 41.44H300.025V36.58C300.025 35.5667 299.765 34.7467 299.245 34.12C298.738 33.48 298.091 33.16 297.305 33.16H295.205L293.645 42.52C293.631 42.6533 293.578 42.7667 293.485 42.86C293.391 42.9533 293.278 43 293.145 43H292.305C292.171 43 292.065 42.9533 291.985 42.86C291.918 42.7667 291.891 42.6533 291.905 42.52L293.505 33.16H292.485C292.351 33.16 292.238 33.12 292.145 33.04C292.065 32.9467 292.025 32.8333 292.025 32.7V32.04C292.025 31.9067 292.065 31.8 292.145 31.72C292.238 31.6267 292.351 31.58 292.485 31.58H297.505ZM312.101 31.58C313.314 31.58 314.274 31.7533 314.981 32.1C315.701 32.4467 316.221 33 316.541 33.76C316.861 34.52 317.021 35.5333 317.021 36.8C317.021 38.5067 316.601 39.84 315.761 40.8C314.921 41.7467 313.827 42.4467 312.481 42.9L311.641 43.18C311.614 43.1933 311.567 43.2 311.501 43.2C311.407 43.2 311.321 43.1667 311.241 43.1C311.174 43.0333 311.141 42.94 311.141 42.82V41.94C311.141 41.8333 311.181 41.7333 311.261 41.64C311.341 41.5333 311.447 41.4533 311.581 41.4L312.361 41.1C313.281 40.7533 313.987 40.2533 314.481 39.6C314.974 38.9467 315.221 37.9867 315.221 36.72C315.221 35.8267 315.114 35.1267 314.901 34.62C314.687 34.1 314.334 33.7267 313.841 33.5C313.361 33.2733 312.694 33.16 311.841 33.16H311.221H311.161L309.321 33.14C309.187 33.14 309.074 33.1 308.981 33.02C308.901 32.94 308.861 32.8333 308.861 32.7V29.26C308.861 29.1267 308.901 29.02 308.981 28.94C309.074 28.8467 309.187 28.8 309.321 28.8H310.121C310.254 28.8 310.361 28.8467 310.441 28.94C310.521 29.02 310.561 29.1267 310.561 29.26V31.58H311.701H312.101ZM322.569 31.58C323.783 31.58 324.743 31.7533 325.449 32.1C326.169 32.4467 326.689 33 327.009 33.76C327.329 34.52 327.489 35.5333 327.489 36.8C327.489 38.5067 327.069 39.84 326.229 40.8C325.389 41.7467 324.296 42.4467 322.949 42.9L322.109 43.18C322.083 43.1933 322.036 43.2 321.969 43.2C321.876 43.2 321.789 43.1667 321.709 43.1C321.643 43.0333 321.609 42.94 321.609 42.82V41.94C321.609 41.8333 321.649 41.7333 321.729 41.64C321.809 41.5333 321.916 41.4533 322.049 41.4L322.829 41.1C323.749 40.7533 324.456 40.2533 324.949 39.6C325.443 38.9467 325.689 37.9867 325.689 36.72C325.689 35.8267 325.583 35.1267 325.369 34.62C325.156 34.1 324.803 33.7267 324.309 33.5C323.829 33.2733 323.163 33.16 322.309 33.16H321.689H321.629L319.789 33.14C319.656 33.14 319.543 33.1 319.449 33.02C319.369 32.94 319.329 32.8333 319.329 32.7V29.26C319.329 29.1267 319.369 29.02 319.449 28.94C319.543 28.8467 319.656 28.8 319.789 28.8H320.589C320.723 28.8 320.829 28.8467 320.909 28.94C320.989 29.02 321.029 29.1267 321.029 29.26V31.58H322.169H322.569ZM335.278 31.58C336.105 31.58 336.838 31.78 337.478 32.18C338.131 32.5667 338.638 33.1267 338.998 33.86C339.371 34.5933 339.558 35.46 339.558 36.46V42.54C339.558 42.6733 339.511 42.7867 339.418 42.88C339.338 42.96 339.231 43 339.098 43H333.938C333.805 43 333.691 42.96 333.598 42.88C333.518 42.7867 333.478 42.6733 333.478 42.54V41.9C333.478 41.7667 333.518 41.66 333.598 41.58C333.691 41.4867 333.805 41.44 333.938 41.44H337.798V36.58C337.798 35.5667 337.538 34.7467 337.018 34.12C336.511 33.48 335.865 33.16 335.078 33.16H332.978L331.418 42.52C331.405 42.6533 331.351 42.7667 331.258 42.86C331.165 42.9533 331.051 43 330.918 43H330.078C329.945 43 329.838 42.9533 329.758 42.86C329.691 42.7667 329.665 42.6533 329.678 42.52L331.278 33.16H330.258C330.125 33.16 330.011 33.12 329.918 33.04C329.838 32.9467 329.798 32.8333 329.798 32.7V32.04C329.798 31.9067 329.838 31.8 329.918 31.72C330.011 31.6267 330.125 31.58 330.258 31.58H335.278Z" fill="#FFEE97"/>
<path d="M292.74 55.6952C292.019 55.2865 291.104 55.5394 290.695 56.26L284.035 68.0028C283.626 68.7234 283.879 69.6388 284.6 70.0475C285.32 70.4562 286.236 70.2034 286.645 69.4828L292.565 59.0448L303.003 64.9648C303.723 65.3735 304.639 65.1207 305.048 64.4001C305.456 63.6795 305.203 62.764 304.483 62.3553L292.74 55.6952ZM321 162L322.446 161.601L293.446 56.6007L292 57L290.554 57.3993L319.554 162.399L321 162Z" fill="#FFEE97"/>
<defs>
<filter id="filter0_f_393_5" x="-0.776563" y="77.2732" width="400.575" height="316.717" filterUnits="userSpaceOnUse" color-interpolation-filters="sRGB">
<feFlood flood-opacity="0" result="BackgroundImageFix"/>
<feBlend mode="normal" in="SourceGraphic" in2="BackgroundImageFix" result="shape"/>
<feGaussianBlur stdDeviation="7.4" result="effect1_foregroundBlur_393_5"/>
</filter>
<filter id="filter1_f_393_5" x="-2.17695" y="71.8157" width="398.149" height="117.566" filterUnits="userSpaceOnUse" color-interpolation-filters="sRGB">
<feFlood flood-opacity="0" result="BackgroundImageFix"/>
<feBlend mode="normal" in="SourceGraphic" in2="BackgroundImageFix" result="shape"/>
<feGaussianBlur stdDeviation="5.15" result="effect1_foregroundBlur_393_5"/>
</filter>
<filter id="filter2_f_393_5" x="95.9711" y="163.324" width="71.2238" height="86.7164" filterUnits="userSpaceOnUse" color-interpolation-filters="sRGB">
<feFlood flood-opacity="0" result="BackgroundImageFix"/>
<feBlend mode="normal" in="SourceGraphic" in2="BackgroundImageFix" result="shape"/>
<feGaussianBlur stdDeviation="11.7" result="effect1_foregroundBlur_393_5"/>
</filter>
<filter id="filter3_f_393_5" x="23.1109" y="158.077" width="58.4539" height="77.474" filterUnits="userSpaceOnUse" color-interpolation-filters="sRGB">
<feFlood flood-opacity="0" result="BackgroundImageFix"/>
<feBlend mode="normal" in="SourceGraphic" in2="BackgroundImageFix" result="shape"/>
<feGaussianBlur stdDeviation="10.55" result="effect1_foregroundBlur_393_5"/>
</filter>
<filter id="filter4_f_393_5" x="306.554" y="160.516" width="58.4539" height="77.474" filterUnits="userSpaceOnUse" color-interpolation-filters="sRGB">
<feFlood flood-opacity="0" result="BackgroundImageFix"/>
<feBlend mode="normal" in="SourceGraphic" in2="BackgroundImageFix" result="shape"/>
<feGaussianBlur stdDeviation="10.55" result="effect1_foregroundBlur_393_5"/>
</filter>
<filter id="filter5_f_393_5" x="118.125" y="225.125" width="66.3691" height="60.8856" filterUnits="userSpaceOnUse" color-interpolation-filters="sRGB">
<feFlood flood-opacity="0" result="BackgroundImageFix"/>
<feBlend mode="normal" in="SourceGraphic" in2="BackgroundImageFix" result="shape"/>
<feGaussianBlur stdDeviation="0.4375" result="effect1_foregroundBlur_393_5"/>
</filter>
<filter id="filter6_f_393_5" x="194.2" y="244.2" width="105.295" height="117.505" filterUnits="userSpaceOnUse" color-interpolation-filters="sRGB">
<feFlood flood-opacity="0" result="BackgroundImageFix"/>
<feBlend mode="normal" in="SourceGraphic" in2="BackgroundImageFix" result="shape"/>
<feGaussianBlur stdDeviation="3.9" result="effect1_foregroundBlur_393_5"/>
</filter>
<filter id="filter7_f_393_5" x="299.757" y="142.207" width="43.7934" height="36.8661" filterUnits="userSpaceOnUse" color-interpolation-filters="sRGB">
<feFlood flood-opacity="0" result="BackgroundImageFix"/>
<feBlend mode="normal" in="SourceGraphic" in2="BackgroundImageFix" result="shape"/>
<feGaussianBlur stdDeviation="3.9" result="effect1_foregroundBlur_393_5"/>
</filter>
</defs>
</svg>
