<svg width="393" height="323" viewBox="0 0 393 323" fill="none" xmlns="http://www.w3.org/2000/svg">
<g filter="url(#filter0_f_393_5)">
<path d="M14.5312 20.7575H384.478L374.367 275.185C373.659 293.016 358.904 307.053 341.06 306.873L50.9771 303.941C33.0765 303.761 18.5844 289.341 18.3143 271.441L14.5312 20.7575Z" fill="#FAE7C9"/>
<path d="M384.478 20.7575C384.478 20.7575 297.683 100.244 287.723 100.244C277.763 100.244 111.998 100.244 104.884 100.244C87.0978 100.244 14.5312 20.7575 14.5312 20.7575M384.478 20.7575H14.5312M384.478 20.7575L374.367 275.185C373.659 293.016 358.904 307.053 341.06 306.873L50.9771 303.941C33.0765 303.761 18.5844 289.341 18.3143 271.441L14.5312 20.7575" stroke="#ECCCA2"/>
</g>
<g filter="url(#filter1_f_393_5)">
<path d="M94.4303 104.003C83.8673 97.9152 27.9693 37.4298 9.1725 16.9343C6.80854 14.3567 8.70658 10.2563 12.2038 10.3003L381.698 14.9593C385.24 15.004 387.01 19.239 384.485 21.7231C363.504 42.3641 300.014 104.003 290.031 104.003C278.04 104.003 107.171 111.345 94.4303 104.003Z" fill="#ECCCA2"/>
</g>
<path d="M27.0234 38.3177H364.3L355.279 250.346C354.522 268.131 339.797 282.11 321.997 281.942L63.0797 279.498C45.184 279.329 30.6846 264.927 30.3955 247.033L27.0234 38.3177Z" fill="#FAE7C9"/>
<path d="M311.989 91.132L311.916 90.7874C311.896 90.694 311.934 90.5923 312.017 90.5185C312.204 90.352 312.502 90.4089 312.547 90.6195L312.777 91.7081L312.922 92.388C312.991 92.7138 313.163 93.0055 313.42 93.2314L316.37 95.8245C316.936 96.3224 317.832 96.4337 318.642 96.107L331.032 91.1103C332.029 90.7081 332.629 89.7558 332.442 88.8721L331.424 84.07C331.379 83.859 331.156 83.7312 330.905 83.7728C330.714 83.8046 330.532 83.7378 330.44 83.6013L329.658 82.4487C329.453 82.1479 329.782 81.7305 330.194 81.7668C330.354 81.7808 330.484 81.8649 330.544 81.991L333.584 88.473C334.015 89.3914 333.456 90.5378 332.343 91.018L317.973 97.2171C316.962 97.6532 315.831 97.3899 315.342 96.6045L312.087 91.3752C312.04 91.3003 312.007 91.2183 311.989 91.132Z" fill="#C5BF9B" stroke="#C5BF9B" stroke-width="6"/>
<path d="M72.0972 88.6927L72.1702 88.3481C72.19 88.2548 72.1517 88.153 72.0689 88.0792C71.8822 87.9128 71.584 87.9697 71.5393 88.1803L71.3085 89.2689L71.1643 89.9488C71.0952 90.2745 70.9229 90.5662 70.6658 90.7922L67.7161 93.3853C67.1498 93.8832 66.2542 93.9945 65.4439 93.6677L53.054 88.6711C52.0566 88.2688 51.4567 87.3165 51.6441 86.4329L52.6623 81.6307C52.707 81.4198 52.9303 81.2919 53.1811 81.3336C53.3724 81.3654 53.5538 81.2985 53.6463 81.1621L54.4284 80.0095C54.6325 79.7086 54.3038 79.2912 53.8915 79.3276C53.7324 79.3416 53.6015 79.4256 53.5424 79.5518L50.5016 86.0337C50.0708 86.9521 50.6301 88.0986 51.7433 88.5788L66.113 94.7779C67.124 95.214 68.2551 94.9506 68.744 94.1653L71.9992 88.936C72.0459 88.861 72.0789 88.7791 72.0972 88.6927Z" fill="#C5BF9B" stroke="#C5BF9B" stroke-width="6"/>
<path d="M117.827 162.72C113.288 158.451 106.152 107.227 106.152 107.227H275.439C275.439 107.227 267.007 155.402 261.818 162.72C256.629 170.038 122.367 166.989 117.827 162.72Z" fill="#7597AD" stroke="#ECCCA2" stroke-width="3"/>
<path d="M314.652 108.114L339.245 94.901C343.243 92.7535 348.085 95.6489 348.085 100.186V144.91C348.085 147.222 346.757 149.328 344.671 150.325L316.593 163.733C312.427 165.723 307.669 162.458 308.026 157.855L311.509 112.935C311.667 110.898 312.852 109.081 314.652 108.114Z" fill="#7597AD" stroke="#B29773" stroke-width="4"/>
<path d="M73.4283 108.114L48.8347 94.901C44.8375 92.7535 39.9951 95.6489 39.9951 100.186V144.91C39.9951 147.222 41.3233 149.328 43.4095 150.325L71.4868 163.733C75.6531 165.723 80.4115 162.458 80.0545 157.855L76.5707 112.935C76.4127 110.898 75.2286 109.081 73.4283 108.114Z" fill="#7597AD" stroke="#B29773" stroke-width="4"/>
<g filter="url(#filter2_f_393_5)">
<ellipse cx="11.8776" cy="20.1554" rx="11.8776" ry="20.1554" transform="matrix(0.989354 -0.145531 0.164151 0.986435 116.523 116.713)" fill="#D4EBF9"/>
</g>
<g filter="url(#filter3_f_393_5)">
<ellipse cx="8.12087" cy="17.6396" rx="8.12087" ry="17.6396" transform="matrix(0.999862 -0.0166174 0.0187982 0.999823 43.8867 107.497)" fill="#D4EBF9"/>
</g>
<g filter="url(#filter4_f_393_5)">
<ellipse cx="8.12087" cy="17.6396" rx="8.12087" ry="17.6396" transform="matrix(-0.999862 -0.0166174 -0.0187982 0.999823 344.232 109.936)" fill="#D4EBF9"/>
</g>
<rect x="171.014" y="199.918" width="40.2137" height="50.6146" rx="6" fill="#C8AC88"/>
<rect x="88.6406" y="166.988" width="204.312" height="32.93" rx="16" fill="#ECCCA2"/>
<line x1="178.148" y1="173.197" x2="215.119" y2="173.197" stroke="#FFF3DE"/>
<line x1="178.148" y1="195.15" x2="215.119" y2="195.15" stroke="#FFF3DE"/>
<line x1="178.148" y1="187.832" x2="215.119" y2="187.832" stroke="#FFF3DE"/>
<line x1="178.148" y1="180.514" x2="215.119" y2="180.514" stroke="#FFF3DE"/>
<rect width="23.8329" height="77.3611" rx="7" transform="matrix(0.40179 -0.915732 0.932332 0.361602 281.426 248.709)" fill="#ECCCA2"/>
<rect width="23.8329" height="75.2859" rx="7" transform="matrix(-0.40179 -0.915732 -0.932332 0.361602 103.553 248.709)" fill="#ECCCA2"/>
<path d="M183.598 184.105C183.598 200.435 169.133 213.673 151.288 213.673C133.444 213.673 118.979 200.435 118.979 184.105C118.979 167.775 133.444 154.537 151.288 154.537C169.133 154.537 183.598 167.775 183.598 184.105ZM126.186 184.105C126.186 196.792 137.425 207.077 151.288 207.077C165.152 207.077 176.391 196.792 176.391 184.105C176.391 171.418 165.152 161.133 151.288 161.133C137.425 161.133 126.186 171.418 126.186 184.105Z" fill="#505050"/>
<path d="M161.492 180.826C157.727 179.183 142.379 177.869 139.483 180.826C136.587 183.782 135.429 189.365 135.139 192.321C134.85 195.278 144.117 207.102 144.117 207.102H157.727C157.727 207.102 166.994 196.263 166.994 192.321C166.994 188.38 165.256 182.468 161.492 180.826Z" fill="#505050"/>
<path d="M162.55 181.096L172.013 175.969C172.865 175.507 173.935 175.723 174.55 176.481L179.68 182.797C180.565 183.888 180.088 185.508 178.756 185.932L165.928 190.02C164.875 190.356 163.738 189.779 163.388 188.731L161.623 183.454C161.318 182.542 161.707 181.553 162.55 181.096Z" stroke="#505050" stroke-width="6"/>
<path d="M140.185 181.096L130.722 175.969C129.87 175.507 128.8 175.723 128.184 176.481L123.055 182.797C122.169 183.888 122.646 185.508 123.979 185.932L136.807 190.02C137.859 190.356 138.996 189.779 139.347 188.731L141.112 183.454C141.417 182.542 141.027 181.553 140.185 181.096Z" stroke="#505050" stroke-width="6"/>
<ellipse cx="151.064" cy="186.952" rx="5.60935" ry="0.876083" fill="#D9D9D9"/>
<path d="M289.546 240.57C294.228 255.656 289.546 280.298 289.546 282.309H203.302C203.302 282.309 200.217 265.276 203.302 255.656C206.185 246.669 209.983 238.576 216.18 233.026C223.782 226.218 224.375 226.992 238.814 226.992H275.107C285.254 226.992 284.863 225.483 289.546 240.57Z" fill="#C2AD92"/>
<rect width="2.89342" height="5.03268" transform="matrix(-1 0 0 1 269.928 221.917)" fill="#A7A7A7"/>
<rect width="2.89342" height="5.03268" transform="matrix(-1 0 0 1 239.547 221.917)" fill="#A7A7A7"/>
<path d="M280.536 204.806C281.585 211.398 281.921 219.109 280.536 221.917C279.151 224.725 261.695 222.814 249.674 221.917C241.728 221.324 234.872 224.913 229.419 219.401C223.698 213.617 224.688 206.216 227.008 198.263C229.004 191.419 232.048 187.84 237.617 183.669C243.186 179.497 267.516 179.139 272.338 183.669C277.16 188.198 279.138 196.021 280.536 204.806Z" fill="#C2AD92"/>
<path d="M188.202 220.957C188.202 219.433 193.391 216.993 193.391 216.993L195.661 217.908C195.661 217.908 190.796 220.652 190.796 221.872C190.796 223.091 194.688 226.75 194.688 227.97C194.688 229.19 189.499 236.812 189.499 238.337C189.499 239.861 192.093 247.179 192.093 247.179L193.391 250.838H189.499L188.202 247.179C187.098 243.782 185.932 239.556 185.932 238.337C185.931 237.117 190.796 229.494 190.796 227.97C190.796 226.445 188.202 222.482 188.202 220.957Z" fill="#858585"/>
<ellipse cx="195.985" cy="216.688" rx="3.56735" ry="3.35398" fill="#606060"/>
<path d="M100.846 106.508C91.4066 101.62 42.4935 54.1693 24.0489 36.1188C21.4776 33.6024 23.3046 29.2682 26.902 29.309L362.717 33.1139C366.365 33.1552 368.048 37.639 365.312 40.0525C344.698 58.239 289.145 106.508 280.22 106.508C269.224 106.508 112.529 112.558 100.846 106.508Z" fill="#ECCCA2"/>
<g opacity="0.78" filter="url(#filter5_f_393_5)">
<mask id="path-33-inside-1_393_5" fill="white">
<path d="M183.62 183.752C183.62 200.082 169.154 213.32 151.31 213.32C133.466 213.32 119 200.082 119 183.752C119 167.422 133.466 154.184 151.31 154.184C169.154 154.184 183.62 167.422 183.62 183.752ZM126.208 183.752C126.208 196.439 137.446 206.724 151.31 206.724C165.173 206.724 176.412 196.439 176.412 183.752C176.412 171.065 165.173 160.78 151.31 160.78C137.446 160.78 126.208 171.065 126.208 183.752Z"/>
</mask>
<path d="M183.62 183.752C183.62 200.082 169.154 213.32 151.31 213.32C133.466 213.32 119 200.082 119 183.752C119 167.422 133.466 154.184 151.31 154.184C169.154 154.184 183.62 167.422 183.62 183.752ZM126.208 183.752C126.208 196.439 137.446 206.724 151.31 206.724C165.173 206.724 176.412 196.439 176.412 183.752C176.412 171.065 165.173 160.78 151.31 160.78C137.446 160.78 126.208 171.065 126.208 183.752Z" fill="#FFEE97" stroke="#FFEE97" stroke-width="2" mask="url(#path-33-inside-1_393_5)"/>
<path d="M161.513 180.473C157.749 178.831 142.401 177.517 139.505 180.473C136.609 183.429 135.451 189.013 135.161 191.969C134.871 194.925 144.138 206.749 144.138 206.749H157.749C157.749 206.749 167.016 195.91 167.015 191.969C167.015 188.027 165.278 182.115 161.513 180.473Z" fill="#FFEE97" stroke="#FFEE97"/>
<path d="M162.571 180.743L172.034 175.616C172.886 175.154 173.956 175.37 174.571 176.128L179.701 182.445C180.587 183.535 180.109 185.155 178.777 185.58L165.949 189.668C164.897 190.003 163.759 189.426 163.409 188.378L161.644 183.101C161.339 182.19 161.729 181.2 162.571 180.743Z" stroke="#FFEE97" stroke-width="6"/>
<path d="M140.206 180.743L130.743 175.616C129.891 175.154 128.821 175.37 128.206 176.128L123.076 182.445C122.19 183.535 122.668 185.155 124 185.58L136.828 189.668C137.881 190.003 139.018 189.426 139.368 188.378L141.133 183.101C141.438 182.19 141.049 181.2 140.206 180.743Z" stroke="#FFEE97" stroke-width="6"/>
<mask id="path-37-inside-2_393_5" fill="white">
<ellipse cx="151.086" cy="186.599" rx="5.60935" ry="0.876083"/>
</mask>
<ellipse cx="151.086" cy="186.599" rx="5.60935" ry="0.876083" fill="#FFEE97"/>
<path d="M156.695 186.599H155.695C155.695 186.195 155.956 185.995 155.975 185.981C156.014 185.951 156.01 185.965 155.908 186.002C155.716 186.073 155.381 186.155 154.898 186.231C153.948 186.379 152.6 186.475 151.086 186.475V187.475V188.475C152.67 188.475 154.126 188.376 155.207 188.207C155.739 188.124 156.225 188.017 156.601 187.878C156.783 187.811 156.999 187.715 157.188 187.571C157.356 187.443 157.695 187.125 157.695 186.599H156.695ZM151.086 187.475V186.475C149.572 186.475 148.224 186.379 147.274 186.231C146.791 186.155 146.456 186.073 146.264 186.002C146.162 185.965 146.158 185.951 146.197 185.981C146.216 185.995 146.477 186.195 146.477 186.599H145.477H144.477C144.477 187.125 144.816 187.443 144.984 187.571C145.173 187.715 145.389 187.811 145.571 187.878C145.947 188.017 146.433 188.124 146.965 188.207C148.045 188.376 149.502 188.475 151.086 188.475V187.475ZM145.477 186.599H146.477C146.477 187.004 146.216 187.204 146.197 187.218C146.158 187.248 146.162 187.234 146.264 187.196C146.456 187.125 146.791 187.043 147.274 186.968C148.224 186.82 149.572 186.723 151.086 186.723V185.723V184.723C149.502 184.723 148.045 184.823 146.965 184.992C146.433 185.075 145.947 185.182 145.571 185.32C145.389 185.387 145.173 185.484 144.984 185.628C144.816 185.756 144.477 186.074 144.477 186.599H145.477ZM151.086 185.723V186.723C152.6 186.723 153.948 186.82 154.898 186.968C155.381 187.043 155.716 187.125 155.908 187.196C156.01 187.234 156.014 187.248 155.975 187.218C155.956 187.204 155.695 187.004 155.695 186.599H156.695H157.695C157.695 186.074 157.356 185.756 157.188 185.628C156.999 185.484 156.783 185.387 156.601 185.32C156.225 185.182 155.739 185.075 155.207 184.992C154.126 184.823 152.67 184.723 151.086 184.723V185.723Z" fill="#FFEE97" mask="url(#path-37-inside-2_393_5)"/>
</g>
<path d="M93.5812 239.633C88.8986 254.53 93.5812 278.862 93.5812 280.848H179.825C179.825 280.848 182.91 264.029 179.825 254.53C176.942 245.656 173.144 237.665 166.947 232.185C159.345 225.462 158.752 226.226 144.313 226.226H108.02C97.8734 226.226 98.2638 224.737 93.5812 239.633Z" fill="#C2AD92"/>
<rect x="113.201" y="221.215" width="2.89342" height="4.96938" fill="#A7A7A7"/>
<rect x="143.582" y="221.215" width="2.89342" height="4.96938" fill="#A7A7A7"/>
<path d="M102.593 204.319C101.544 210.829 101.208 218.442 102.593 221.215C103.978 223.988 121.433 222.101 133.455 221.215C141.401 220.63 148.257 224.174 153.71 218.731C159.431 213.019 158.441 205.712 156.121 197.859C154.125 191.101 151.081 187.567 145.512 183.448C139.943 179.329 115.613 178.976 110.791 183.448C105.969 187.921 103.991 195.645 102.593 204.319Z" fill="#C2AD92"/>
<rect width="3.08048" height="8.35439" rx="1.54024" transform="matrix(0.418104 -0.908399 0.926271 0.376857 292.861 236.097)" fill="#947E61"/>
<rect width="3.08048" height="8.35439" rx="1.54024" transform="matrix(-0.418104 -0.908399 -0.926271 0.376857 91.0898 236.097)" fill="#947E61"/>
<g opacity="0.78" filter="url(#filter6_f_393_5)">
<path d="M289.614 240.35C294.297 255.436 289.614 280.078 289.614 282.089H203.37C203.37 282.089 200.285 265.056 203.37 255.436C206.253 246.449 210.051 238.356 216.248 232.806C223.85 225.998 224.443 226.772 238.883 226.772H275.175C285.322 226.772 284.932 225.263 289.614 240.35Z" fill="#FFEE97"/>
<rect width="2.89342" height="5.03268" transform="matrix(-1 0 0 1 269.996 221.697)" fill="#A7A7A7"/>
<rect width="2.89342" height="5.03268" transform="matrix(-1 0 0 1 239.615 221.697)" fill="#A7A7A7"/>
<path d="M280.604 204.586C281.653 211.178 281.99 218.889 280.604 221.697C279.219 224.505 261.764 222.594 249.742 221.697C241.796 221.104 234.94 224.693 229.487 219.181C223.766 213.397 224.756 205.996 227.076 198.043C229.072 191.199 232.116 187.62 237.685 183.449C243.254 179.277 267.584 178.919 272.406 183.449C277.229 187.978 279.207 195.801 280.604 204.586Z" fill="#FFEE97"/>
</g>
<g opacity="0.78" filter="url(#filter7_f_393_5)">
<path d="M93.9952 240.35C89.3126 255.436 93.9952 280.078 93.9952 282.089H180.239C180.239 282.089 183.324 265.056 180.239 255.436C177.356 246.449 173.558 238.356 167.361 232.806C159.759 225.998 159.166 226.772 144.727 226.772H108.434C98.2875 226.772 98.6778 225.263 93.9952 240.35Z" fill="#FFEE97"/>
<rect x="113.613" y="221.697" width="2.89342" height="5.03268" fill="#A7A7A7"/>
<rect x="143.994" y="221.697" width="2.89342" height="5.03268" fill="#A7A7A7"/>
<path d="M103.005 204.586C101.956 211.178 101.62 218.889 103.005 221.697C104.39 224.505 121.846 222.594 133.868 221.697C141.813 221.104 148.669 224.693 154.122 219.181C159.843 213.397 158.853 205.996 156.533 198.043C154.537 191.199 151.493 187.62 145.924 183.449C140.355 179.277 116.025 178.919 111.203 183.449C106.381 187.978 104.403 195.801 103.005 204.586Z" fill="#FFEE97"/>
</g>
<g opacity="0.78" filter="url(#filter8_f_393_5)">
<path d="M310.821 90.3606L310.748 90.016C310.728 89.9227 310.766 89.8209 310.849 89.7471C311.036 89.5807 311.334 89.6375 311.379 89.8481L311.609 90.9367L311.754 91.6167C311.823 91.9424 311.995 92.2341 312.252 92.46L315.202 95.0532C315.768 95.551 316.664 95.6624 317.474 95.3356L329.864 90.3389C330.861 89.9367 331.461 88.9844 331.274 88.1007L330.256 83.2986C330.211 83.0877 329.988 82.9598 329.737 83.0015C329.546 83.0333 329.364 82.9664 329.272 82.83L328.49 81.6773C328.286 81.3765 328.614 80.9591 329.027 80.9955C329.186 81.0095 329.316 81.0935 329.376 81.2196L332.416 87.7016C332.847 88.62 332.288 89.7664 331.175 90.2467L316.805 96.4458C315.794 96.8819 314.663 96.6185 314.174 95.8332L310.919 90.6039C310.872 90.5289 310.839 90.4469 310.821 90.3606Z" fill="#FFEE97"/>
<path d="M310.821 90.3606L310.748 90.016C310.728 89.9227 310.766 89.8209 310.849 89.7471C311.036 89.5807 311.334 89.6375 311.379 89.8481L311.609 90.9367L311.754 91.6167C311.823 91.9424 311.995 92.2341 312.252 92.46L315.202 95.0532C315.768 95.551 316.664 95.6624 317.474 95.3356L329.864 90.3389C330.861 89.9367 331.461 88.9844 331.274 88.1007L330.256 83.2986C330.211 83.0877 329.988 82.9598 329.737 83.0015C329.546 83.0333 329.364 82.9664 329.272 82.83L328.49 81.6773C328.286 81.3765 328.614 80.9591 329.027 80.9955C329.186 81.0095 329.316 81.0935 329.376 81.2196L332.416 87.7016C332.847 88.62 332.288 89.7664 331.175 90.2467L316.805 96.4458C315.794 96.8819 314.663 96.6185 314.174 95.8332L310.919 90.6039C310.872 90.5289 310.839 90.4469 310.821 90.3606Z" stroke="#FFEE97" stroke-width="6"/>
</g>
<g opacity="0.78" filter="url(#filter9_f_393_5)">
<path d="M71.6167 88.3606L71.6898 88.016C71.7096 87.9227 71.6712 87.8209 71.5884 87.7471C71.4017 87.5807 71.1035 87.6375 71.0589 87.8481L70.828 88.9367L70.6839 89.6167C70.6148 89.9424 70.4424 90.2341 70.1854 90.46L67.2357 93.0532C66.6693 93.551 65.7737 93.6624 64.9635 93.3356L52.5735 88.3389C51.5761 87.9367 50.9762 86.9844 51.1636 86.1007L52.1818 81.2986C52.2266 81.0877 52.4499 80.9598 52.7006 81.0015C52.8919 81.0333 53.0733 80.9664 53.1659 80.83L53.9479 79.6773C54.152 79.3765 53.8233 78.9591 53.411 78.9955C53.2519 79.0095 53.1211 79.0935 53.0619 79.2196L50.0212 85.7016C49.5903 86.62 50.1496 87.7664 51.2628 88.2467L65.6326 94.4458C66.6435 94.8819 67.7746 94.6185 68.2635 93.8332L71.5187 88.6039C71.5654 88.5289 71.5984 88.4469 71.6167 88.3606Z" fill="#FFEE97"/>
<path d="M71.6167 88.3606L71.6898 88.016C71.7096 87.9227 71.6712 87.8209 71.5884 87.7471C71.4017 87.5807 71.1035 87.6375 71.0589 87.8481L70.828 88.9367L70.6839 89.6167C70.6148 89.9424 70.4424 90.2341 70.1854 90.46L67.2357 93.0532C66.6693 93.551 65.7737 93.6624 64.9635 93.3356L52.5735 88.3389C51.5761 87.9367 50.9762 86.9844 51.1636 86.1007L52.1818 81.2986C52.2266 81.0877 52.4499 80.9598 52.7006 81.0015C52.8919 81.0333 53.0733 80.9664 53.1659 80.83L53.9479 79.6773C54.152 79.3765 53.8233 78.9591 53.411 78.9955C53.2519 79.0095 53.1211 79.0935 53.0619 79.2196L50.0212 85.7016C49.5903 86.62 50.1496 87.7664 51.2628 88.2467L65.6326 94.4458C66.6435 94.8819 67.7746 94.6185 68.2635 93.8332L71.5187 88.6039C71.5654 88.5289 71.5984 88.4469 71.6167 88.3606Z" stroke="#FFEE97" stroke-width="6"/>
</g>
<defs>
<filter id="filter0_f_393_5" x="-0.776563" y="5.45754" width="400.575" height="316.717" filterUnits="userSpaceOnUse" color-interpolation-filters="sRGB">
<feFlood flood-opacity="0" result="BackgroundImageFix"/>
<feBlend mode="normal" in="SourceGraphic" in2="BackgroundImageFix" result="shape"/>
<feGaussianBlur stdDeviation="7.4" result="effect1_foregroundBlur_393_5"/>
</filter>
<filter id="filter1_f_393_5" x="-2.17695" y="-1.23978e-05" width="398.149" height="117.566" filterUnits="userSpaceOnUse" color-interpolation-filters="sRGB">
<feFlood flood-opacity="0" result="BackgroundImageFix"/>
<feBlend mode="normal" in="SourceGraphic" in2="BackgroundImageFix" result="shape"/>
<feGaussianBlur stdDeviation="5.15" result="effect1_foregroundBlur_393_5"/>
</filter>
<filter id="filter2_f_393_5" x="95.9711" y="91.5082" width="71.2238" height="86.7164" filterUnits="userSpaceOnUse" color-interpolation-filters="sRGB">
<feFlood flood-opacity="0" result="BackgroundImageFix"/>
<feBlend mode="normal" in="SourceGraphic" in2="BackgroundImageFix" result="shape"/>
<feGaussianBlur stdDeviation="11.7" result="effect1_foregroundBlur_393_5"/>
</filter>
<filter id="filter3_f_393_5" x="23.1109" y="86.2611" width="58.4539" height="77.474" filterUnits="userSpaceOnUse" color-interpolation-filters="sRGB">
<feFlood flood-opacity="0" result="BackgroundImageFix"/>
<feBlend mode="normal" in="SourceGraphic" in2="BackgroundImageFix" result="shape"/>
<feGaussianBlur stdDeviation="10.55" result="effect1_foregroundBlur_393_5"/>
</filter>
<filter id="filter4_f_393_5" x="306.554" y="88.7004" width="58.4539" height="77.474" filterUnits="userSpaceOnUse" color-interpolation-filters="sRGB">
<feFlood flood-opacity="0" result="BackgroundImageFix"/>
<feBlend mode="normal" in="SourceGraphic" in2="BackgroundImageFix" result="shape"/>
<feGaussianBlur stdDeviation="10.55" result="effect1_foregroundBlur_393_5"/>
</filter>
<filter id="filter5_f_393_5" x="118.125" y="153.309" width="66.3691" height="60.8856" filterUnits="userSpaceOnUse" color-interpolation-filters="sRGB">
<feFlood flood-opacity="0" result="BackgroundImageFix"/>
<feBlend mode="normal" in="SourceGraphic" in2="BackgroundImageFix" result="shape"/>
<feGaussianBlur stdDeviation="0.4375" result="effect1_foregroundBlur_393_5"/>
</filter>
<filter id="filter6_f_393_5" x="194.2" y="172.384" width="105.295" height="117.505" filterUnits="userSpaceOnUse" color-interpolation-filters="sRGB">
<feFlood flood-opacity="0" result="BackgroundImageFix"/>
<feBlend mode="normal" in="SourceGraphic" in2="BackgroundImageFix" result="shape"/>
<feGaussianBlur stdDeviation="3.9" result="effect1_foregroundBlur_393_5"/>
</filter>
<filter id="filter7_f_393_5" x="84.1141" y="172.384" width="105.295" height="117.505" filterUnits="userSpaceOnUse" color-interpolation-filters="sRGB">
<feFlood flood-opacity="0" result="BackgroundImageFix"/>
<feBlend mode="normal" in="SourceGraphic" in2="BackgroundImageFix" result="shape"/>
<feGaussianBlur stdDeviation="3.9" result="effect1_foregroundBlur_393_5"/>
</filter>
<filter id="filter8_f_393_5" x="299.757" y="70.3909" width="43.7934" height="36.8661" filterUnits="userSpaceOnUse" color-interpolation-filters="sRGB">
<feFlood flood-opacity="0" result="BackgroundImageFix"/>
<feBlend mode="normal" in="SourceGraphic" in2="BackgroundImageFix" result="shape"/>
<feGaussianBlur stdDeviation="3.9" result="effect1_foregroundBlur_393_5"/>
</filter>
<filter id="filter9_f_393_5" x="38.8875" y="68.3909" width="43.7934" height="36.8661" filterUnits="userSpaceOnUse" color-interpolation-filters="sRGB">
<feFlood flood-opacity="0" result="BackgroundImageFix"/>
<feBlend mode="normal" in="SourceGraphic" in2="BackgroundImageFix" result="shape"/>
<feGaussianBlur stdDeviation="3.9" result="effect1_foregroundBlur_393_5"/>
</filter>
</defs>
</svg>
